<?xml version="1.0" encoding="utf-8" standalone="no"?>
<!DOCTYPE svg PUBLIC "-//W3C//DTD SVG 1.1//EN"
  "http://www.w3.org/Graphics/SVG/1.1/DTD/svg11.dtd">
<svg xmlns:xlink="http://www.w3.org/1999/xlink" width="726.104688pt" height="465.029497pt" viewBox="0 0 726.104688 465.029497" xmlns="http://www.w3.org/2000/svg" version="1.1">
 <metadata>
  <rdf:RDF xmlns:dc="http://purl.org/dc/elements/1.1/" xmlns:cc="http://creativecommons.org/ns#" xmlns:rdf="http://www.w3.org/1999/02/22-rdf-syntax-ns#">
   <cc:Work>
    <dc:type rdf:resource="http://purl.org/dc/dcmitype/StillImage"/>
    <dc:date>2026-07-15T21:40:29.495333</dc:date>
    <dc:format>image/svg+xml</dc:format>
    <dc:creator>
     <cc:Agent>
      <dc:title>Matplotlib v3.10.8, https://matplotlib.org/</dc:title>
     </cc:Agent>
    </dc:creator>
   </cc:Work>
  </rdf:RDF>
 </metadata>
 <defs>
  <style type="text/css">*{stroke-linejoin: round; stroke-linecap: butt}</style>
 </defs>
 <g id="figure_1">
  <g id="patch_1">
   <path d="M -0 465.029497 
L 726.104688 465.029497 
L 726.104688 0 
L -0 0 
z
" style="fill: #0f1115"/>
  </g>
  <g id="axes_1">
   <g id="patch_2">
    <path d="M 49.304688 238.925485 
L 718.904688 238.925485 
L 718.904688 22.293906 
L 49.304688 22.293906 
z
" style="fill: #0f1115"/>
   </g>
   <g id="matplotlib.axis_1">
    <g id="xtick_1">
     <g id="line2d_1">
      <defs>
       <path id="m5a474b800f" d="M 0 0 
L 0 3.5 
" style="stroke: #c5c8ce; stroke-width: 0.8"/>
      </defs>
      <g>
       <use xlink:href="#m5a474b800f" x="79.741051" y="238.925485" style="fill: #c5c8ce; stroke: #c5c8ce; stroke-width: 0.8"/>
      </g>
     </g>
    </g>
    <g id="xtick_2">
     <g id="line2d_2">
      <g>
       <use xlink:href="#m5a474b800f" x="130.257837" y="238.925485" style="fill: #c5c8ce; stroke: #c5c8ce; stroke-width: 0.8"/>
      </g>
     </g>
    </g>
    <g id="xtick_3">
     <g id="line2d_3">
      <g>
       <use xlink:href="#m5a474b800f" x="180.774623" y="238.925485" style="fill: #c5c8ce; stroke: #c5c8ce; stroke-width: 0.8"/>
      </g>
     </g>
    </g>
    <g id="xtick_4">
     <g id="line2d_4">
      <g>
       <use xlink:href="#m5a474b800f" x="231.291409" y="238.925485" style="fill: #c5c8ce; stroke: #c5c8ce; stroke-width: 0.8"/>
      </g>
     </g>
    </g>
    <g id="xtick_5">
     <g id="line2d_5">
      <g>
       <use xlink:href="#m5a474b800f" x="281.808196" y="238.925485" style="fill: #c5c8ce; stroke: #c5c8ce; stroke-width: 0.8"/>
      </g>
     </g>
    </g>
    <g id="xtick_6">
     <g id="line2d_6">
      <g>
       <use xlink:href="#m5a474b800f" x="332.324982" y="238.925485" style="fill: #c5c8ce; stroke: #c5c8ce; stroke-width: 0.8"/>
      </g>
     </g>
    </g>
    <g id="xtick_7">
     <g id="line2d_7">
      <g>
       <use xlink:href="#m5a474b800f" x="382.841768" y="238.925485" style="fill: #c5c8ce; stroke: #c5c8ce; stroke-width: 0.8"/>
      </g>
     </g>
    </g>
    <g id="xtick_8">
     <g id="line2d_8">
      <g>
       <use xlink:href="#m5a474b800f" x="433.358554" y="238.925485" style="fill: #c5c8ce; stroke: #c5c8ce; stroke-width: 0.8"/>
      </g>
     </g>
    </g>
    <g id="xtick_9">
     <g id="line2d_9">
      <g>
       <use xlink:href="#m5a474b800f" x="483.87534" y="238.925485" style="fill: #c5c8ce; stroke: #c5c8ce; stroke-width: 0.8"/>
      </g>
     </g>
    </g>
    <g id="xtick_10">
     <g id="line2d_10">
      <g>
       <use xlink:href="#m5a474b800f" x="534.392126" y="238.925485" style="fill: #c5c8ce; stroke: #c5c8ce; stroke-width: 0.8"/>
      </g>
     </g>
    </g>
    <g id="xtick_11">
     <g id="line2d_11">
      <g>
       <use xlink:href="#m5a474b800f" x="584.908912" y="238.925485" style="fill: #c5c8ce; stroke: #c5c8ce; stroke-width: 0.8"/>
      </g>
     </g>
    </g>
    <g id="xtick_12">
     <g id="line2d_12">
      <g>
       <use xlink:href="#m5a474b800f" x="635.425698" y="238.925485" style="fill: #c5c8ce; stroke: #c5c8ce; stroke-width: 0.8"/>
      </g>
     </g>
    </g>
    <g id="xtick_13">
     <g id="line2d_13">
      <g>
       <use xlink:href="#m5a474b800f" x="685.942485" y="238.925485" style="fill: #c5c8ce; stroke: #c5c8ce; stroke-width: 0.8"/>
      </g>
     </g>
    </g>
   </g>
   <g id="matplotlib.axis_2">
    <g id="ytick_1">
     <g id="line2d_14">
      <defs>
       <path id="mac3d4bb46b" d="M 0 0 
L -3.5 0 
" style="stroke: #c5c8ce; stroke-width: 0.8"/>
      </defs>
      <g>
       <use xlink:href="#mac3d4bb46b" x="49.304688" y="231.661927" style="fill: #c5c8ce; stroke: #c5c8ce; stroke-width: 0.8"/>
      </g>
     </g>
     <g id="text_1">
      <!-- 0.90 -->
      <g style="fill: #c5c8ce" transform="translate(22.304688 235.658802) scale(0.1 -0.1)">
       <defs>
        <path id="MicrosoftYaHei-30" d="M 284 2325 
Q 284 3606 709 4264 
Q 1134 4922 1941 4922 
Q 3478 4922 3478 2441 
Q 3478 1216 3045 567 
Q 2613 -81 1831 -81 
Q 1094 -81 689 534 
Q 284 1150 284 2325 
z
M 909 2353 
Q 909 425 1888 425 
Q 2850 425 2850 2384 
Q 2850 4413 1906 4413 
Q 909 4413 909 2353 
z
" transform="scale(0.015625)"/>
        <path id="MicrosoftYaHei-2e" d="M 372 322 
Q 372 491 487 606 
Q 603 722 775 722 
Q 950 722 1065 605 
Q 1181 488 1181 322 
Q 1181 159 1065 42 
Q 950 -75 772 -75 
Q 600 -75 486 42 
Q 372 159 372 322 
z
" transform="scale(0.015625)"/>
        <path id="MicrosoftYaHei-39" d="M 578 656 
Q 978 425 1441 425 
Q 2091 425 2448 937 
Q 2806 1450 2806 2394 
Q 2800 2388 2794 2394 
Q 2475 1788 1722 1788 
Q 1113 1788 713 2206 
Q 313 2625 313 3294 
Q 313 4006 750 4464 
Q 1188 4922 1884 4922 
Q 2606 4922 3012 4355 
Q 3419 3788 3419 2703 
Q 3419 1363 2894 641 
Q 2369 -81 1441 -81 
Q 931 -81 578 84 
L 578 656 
z
M 931 3372 
Q 931 2884 1181 2598 
Q 1431 2313 1872 2313 
Q 2253 2313 2512 2573 
Q 2772 2834 2772 3206 
Q 2772 3728 2514 4070 
Q 2256 4413 1834 4413 
Q 1444 4413 1187 4116 
Q 931 3819 931 3372 
z
" transform="scale(0.015625)"/>
       </defs>
       <use xlink:href="#MicrosoftYaHei-30"/>
       <use xlink:href="#MicrosoftYaHei-2e" transform="translate(58.642578 0)"/>
       <use xlink:href="#MicrosoftYaHei-39" transform="translate(82.714844 0)"/>
       <use xlink:href="#MicrosoftYaHei-30" transform="translate(141.357422 0)"/>
      </g>
     </g>
    </g>
    <g id="ytick_2">
     <g id="line2d_15">
      <g>
       <use xlink:href="#mac3d4bb46b" x="49.304688" y="202.570038" style="fill: #c5c8ce; stroke: #c5c8ce; stroke-width: 0.8"/>
      </g>
     </g>
     <g id="text_2">
      <!-- 0.95 -->
      <g style="fill: #c5c8ce" transform="translate(22.304688 206.566913) scale(0.1 -0.1)">
       <defs>
        <path id="MicrosoftYaHei-35" d="M 3294 1494 
Q 3294 784 2823 350 
Q 2353 -84 1559 -84 
Q 878 -84 544 119 
L 544 744 
Q 1034 425 1544 425 
Q 2050 425 2361 704 
Q 2672 984 2672 1447 
Q 2672 1909 2348 2167 
Q 2025 2425 1434 2425 
Q 978 2425 613 2384 
L 791 4841 
L 3053 4841 
L 3053 4303 
L 1306 4303 
L 1206 2931 
L 1647 2950 
Q 2416 2950 2855 2567 
Q 3294 2184 3294 1494 
z
" transform="scale(0.015625)"/>
       </defs>
       <use xlink:href="#MicrosoftYaHei-30"/>
       <use xlink:href="#MicrosoftYaHei-2e" transform="translate(58.642578 0)"/>
       <use xlink:href="#MicrosoftYaHei-39" transform="translate(82.714844 0)"/>
       <use xlink:href="#MicrosoftYaHei-35" transform="translate(141.357422 0)"/>
      </g>
     </g>
    </g>
    <g id="ytick_3">
     <g id="line2d_16">
      <g>
       <use xlink:href="#mac3d4bb46b" x="49.304688" y="173.478148" style="fill: #c5c8ce; stroke: #c5c8ce; stroke-width: 0.8"/>
      </g>
     </g>
     <g id="text_3">
      <!-- 1.00 -->
      <g style="fill: #c5c8ce" transform="translate(22.304688 177.475023) scale(0.1 -0.1)">
       <defs>
        <path id="MicrosoftYaHei-31" d="M 1781 0 
L 1781 4141 
Q 1638 3997 1295 3819 
Q 953 3641 663 3569 
L 663 4169 
Q 1047 4275 1484 4508 
Q 1922 4741 2156 4947 
L 2388 4947 
L 2388 0 
L 1781 0 
z
" transform="scale(0.015625)"/>
       </defs>
       <use xlink:href="#MicrosoftYaHei-31"/>
       <use xlink:href="#MicrosoftYaHei-2e" transform="translate(58.642578 0)"/>
       <use xlink:href="#MicrosoftYaHei-30" transform="translate(82.714844 0)"/>
       <use xlink:href="#MicrosoftYaHei-30" transform="translate(141.357422 0)"/>
      </g>
     </g>
    </g>
    <g id="ytick_4">
     <g id="line2d_17">
      <g>
       <use xlink:href="#mac3d4bb46b" x="49.304688" y="144.386259" style="fill: #c5c8ce; stroke: #c5c8ce; stroke-width: 0.8"/>
      </g>
     </g>
     <g id="text_4">
      <!-- 1.05 -->
      <g style="fill: #c5c8ce" transform="translate(22.304688 148.383134) scale(0.1 -0.1)">
       <use xlink:href="#MicrosoftYaHei-31"/>
       <use xlink:href="#MicrosoftYaHei-2e" transform="translate(58.642578 0)"/>
       <use xlink:href="#MicrosoftYaHei-30" transform="translate(82.714844 0)"/>
       <use xlink:href="#MicrosoftYaHei-35" transform="translate(141.357422 0)"/>
      </g>
     </g>
    </g>
    <g id="ytick_5">
     <g id="line2d_18">
      <g>
       <use xlink:href="#mac3d4bb46b" x="49.304688" y="115.29437" style="fill: #c5c8ce; stroke: #c5c8ce; stroke-width: 0.8"/>
      </g>
     </g>
     <g id="text_5">
      <!-- 1.10 -->
      <g style="fill: #c5c8ce" transform="translate(22.304688 119.291245) scale(0.1 -0.1)">
       <use xlink:href="#MicrosoftYaHei-31"/>
       <use xlink:href="#MicrosoftYaHei-2e" transform="translate(58.642578 0)"/>
       <use xlink:href="#MicrosoftYaHei-31" transform="translate(82.714844 0)"/>
       <use xlink:href="#MicrosoftYaHei-30" transform="translate(141.357422 0)"/>
      </g>
     </g>
    </g>
    <g id="ytick_6">
     <g id="line2d_19">
      <g>
       <use xlink:href="#mac3d4bb46b" x="49.304688" y="86.20248" style="fill: #c5c8ce; stroke: #c5c8ce; stroke-width: 0.8"/>
      </g>
     </g>
     <g id="text_6">
      <!-- 1.15 -->
      <g style="fill: #c5c8ce" transform="translate(22.304688 90.199355) scale(0.1 -0.1)">
       <use xlink:href="#MicrosoftYaHei-31"/>
       <use xlink:href="#MicrosoftYaHei-2e" transform="translate(58.642578 0)"/>
       <use xlink:href="#MicrosoftYaHei-31" transform="translate(82.714844 0)"/>
       <use xlink:href="#MicrosoftYaHei-35" transform="translate(141.357422 0)"/>
      </g>
     </g>
    </g>
    <g id="ytick_7">
     <g id="line2d_20">
      <g>
       <use xlink:href="#mac3d4bb46b" x="49.304688" y="57.110591" style="fill: #c5c8ce; stroke: #c5c8ce; stroke-width: 0.8"/>
      </g>
     </g>
     <g id="text_7">
      <!-- 1.20 -->
      <g style="fill: #c5c8ce" transform="translate(22.304688 61.107466) scale(0.1 -0.1)">
       <defs>
        <path id="MicrosoftYaHei-32" d="M 2666 3572 
Q 2666 3963 2419 4186 
Q 2172 4409 1747 4409 
Q 1447 4409 1140 4256 
Q 834 4103 569 3819 
L 569 4413 
Q 806 4659 1107 4790 
Q 1409 4922 1816 4922 
Q 2472 4922 2872 4570 
Q 3272 4219 3272 3619 
Q 3272 3084 3026 2693 
Q 2781 2303 2188 1894 
Q 1581 1475 1376 1294 
Q 1172 1113 1090 947 
Q 1009 781 1009 544 
L 3416 544 
L 3416 0 
L 372 0 
L 372 241 
Q 372 659 486 951 
Q 600 1244 862 1520 
Q 1125 1797 1681 2184 
Q 2250 2584 2458 2886 
Q 2666 3188 2666 3572 
z
" transform="scale(0.015625)"/>
       </defs>
       <use xlink:href="#MicrosoftYaHei-31"/>
       <use xlink:href="#MicrosoftYaHei-2e" transform="translate(58.642578 0)"/>
       <use xlink:href="#MicrosoftYaHei-32" transform="translate(82.714844 0)"/>
       <use xlink:href="#MicrosoftYaHei-30" transform="translate(141.357422 0)"/>
      </g>
     </g>
    </g>
    <g id="ytick_8">
     <g id="line2d_21">
      <g>
       <use xlink:href="#mac3d4bb46b" x="49.304688" y="28.018702" style="fill: #c5c8ce; stroke: #c5c8ce; stroke-width: 0.8"/>
      </g>
     </g>
     <g id="text_8">
      <!-- 1.25 -->
      <g style="fill: #c5c8ce" transform="translate(22.304688 32.015577) scale(0.1 -0.1)">
       <use xlink:href="#MicrosoftYaHei-31"/>
       <use xlink:href="#MicrosoftYaHei-2e" transform="translate(58.642578 0)"/>
       <use xlink:href="#MicrosoftYaHei-32" transform="translate(82.714844 0)"/>
       <use xlink:href="#MicrosoftYaHei-35" transform="translate(141.357422 0)"/>
      </g>
     </g>
    </g>
    <g id="text_9">
     <!-- 净值 -->
     <g style="fill: #e8eaed" transform="translate(15.81875 140.609696) rotate(-90) scale(0.1 -0.1)">
      <defs>
       <path id="MicrosoftYaHei-51c0" d="M 2013 1278 
L 3575 1278 
L 3575 1947 
L 1706 1947 
L 1706 2397 
L 3575 2397 
L 3575 3059 
L 2125 3059 
L 2125 3297 
Q 2009 3178 1894 3066 
Q 1788 3178 1556 3416 
Q 2350 4166 3050 5353 
L 3525 5228 
Q 3400 5000 3266 4784 
L 5144 4784 
L 5144 4366 
L 4419 3497 
L 5700 3497 
L 5700 2397 
L 6269 2397 
L 6269 1947 
L 5700 1947 
L 5700 584 
L 5225 584 
L 5225 841 
L 4063 841 
L 4063 3 
Q 4063 -766 3275 -772 
Q 2863 -772 2488 -772 
Q 2444 -503 2388 -253 
Q 2781 -297 3163 -297 
Q 3575 -297 3575 116 
L 3575 841 
L 2013 841 
L 2013 1278 
z
M 4538 4353 
L 2984 4353 
Q 2669 3897 2309 3497 
L 3847 3497 
L 4538 4353 
z
M 925 2334 
Q 1150 2222 1394 2122 
Q 1063 991 713 -241 
L 206 -47 
Q 638 1159 925 2334 
z
M 4063 1278 
L 5225 1278 
L 5225 1947 
L 4063 1947 
L 4063 1278 
z
M 663 4891 
Q 1063 4203 1406 3509 
Q 1150 3372 938 3272 
Q 619 3991 256 4678 
L 663 4891 
z
M 5225 3059 
L 4063 3059 
L 4063 2397 
L 5225 2397 
L 5225 3059 
z
" transform="scale(0.015625)"/>
       <path id="MicrosoftYaHei-503c" d="M 1619 -216 
L 2250 -216 
L 2250 3653 
L 3725 3653 
L 3725 4222 
L 1913 4222 
L 1913 4647 
L 3725 4647 
L 3725 5309 
L 4200 5309 
L 4200 4647 
L 6169 4647 
L 6169 4222 
L 4200 4222 
L 4200 3653 
L 5713 3653 
L 5713 -216 
L 6306 -216 
L 6306 -641 
L 1619 -641 
L 1619 -216 
z
M 69 2247 
Q 906 3497 1369 5278 
L 1831 5141 
Q 1581 4334 1288 3628 
L 1288 -816 
L 831 -816 
L 831 2666 
Q 563 2166 263 1734 
Q 175 1997 69 2247 
z
M 2713 -216 
L 5250 -216 
L 5250 353 
L 2713 353 
L 2713 -216 
z
M 5250 3241 
L 2713 3241 
L 2713 2678 
L 5250 2678 
L 5250 3241 
z
M 2713 1716 
L 5250 1716 
L 5250 2278 
L 2713 2278 
L 2713 1716 
z
M 2713 753 
L 5250 753 
L 5250 1316 
L 2713 1316 
L 2713 753 
z
" transform="scale(0.015625)"/>
      </defs>
      <use xlink:href="#MicrosoftYaHei-51c0"/>
      <use xlink:href="#MicrosoftYaHei-503c" transform="translate(100 0)"/>
     </g>
    </g>
   </g>
   <g id="line2d_22">
    <path d="M 79.741051 179.407481 
L 82.26689 172.949082 
L 84.79273 169.894433 
L 87.318569 170.418087 
L 89.844408 175.130974 
L 92.370248 174.258217 
L 94.896087 176.789211 
L 97.421926 183.247611 
L 99.947766 180.629341 
L 102.473605 179.407481 
L 104.999444 173.560011 
L 107.525284 179.320206 
L 112.576962 178.272898 
L 115.102801 178.272898 
L 117.628641 176.963763 
L 120.15448 167.53799 
L 122.680319 160.992315 
L 125.206159 151.915646 
L 127.731998 146.679106 
L 130.257837 152.090197 
L 132.783677 151.304716 
L 135.309516 164.865459 
L 137.835355 159.361274 
L 140.361194 151.157361 
L 142.887034 141.126477 
L 145.412873 149.004561 
L 147.938712 152.681776 
L 150.464552 136.716147 
L 152.990391 132.282543 
L 155.51623 123.985536 
L 158.04207 123.764438 
L 160.567909 116.212183 
L 163.093748 133.038932 
L 165.619588 129.803914 
L 168.145427 131.526154 
L 170.671266 127.104187 
L 173.197105 137.832119 
L 175.722945 139.554359 
L 178.248784 128.406347 
L 180.774623 135.946965 
L 183.300463 133.63125 
L 185.826302 135.219667 
L 188.352141 137.832119 
L 190.877981 145.535651 
L 193.40382 149.573606 
L 195.929659 146.664417 
L 198.455499 144.511617 
L 200.981338 146.693509 
L 203.507177 153.047177 
L 208.558856 145.535651 
L 211.084695 145.209822 
L 213.610534 142.166811 
L 216.136374 136.837177 
L 218.662213 132.33957 
L 221.188052 140.33984 
L 223.713892 137.698296 
L 226.239731 145.973123 
L 228.76557 153.560287 
L 231.291409 160.577251 
L 233.817249 160.996174 
L 236.343088 164.638479 
L 238.868927 172.947122 
L 241.394767 177.83456 
L 243.920606 187.946901 
L 246.446445 178.020748 
L 248.972285 177.822923 
L 251.498124 173.49405 
L 254.023963 177.206175 
L 256.549803 178.521128 
L 259.075642 182.047065 
L 261.601481 183.303835 
L 264.12732 183.885673 
L 266.65316 179.405522 
L 269.178999 176.822162 
L 271.704838 163.474803 
L 274.230678 159.448486 
L 276.756517 168.630759 
L 279.282356 166.448867 
L 281.808196 173.076 
L 284.334035 172.697805 
L 286.859874 162.917112 
L 291.911553 168.345658 
L 294.437392 161.031957 
L 296.963231 145.624893 
L 299.489071 119.389827 
L 302.01491 111.215006 
L 304.540749 106.7174 
L 307.066589 98.082927 
L 309.592428 95.034097 
L 312.118267 112.361227 
L 314.644107 110.371341 
L 317.169946 119.087271 
L 319.695785 120.082214 
L 322.221625 132.190258 
L 324.747464 134.180144 
L 327.273303 151.374414 
L 329.799142 143.822159 
L 332.324982 149.285616 
L 334.850821 152.89301 
L 337.37666 155.51128 
L 339.9025 167.322587 
L 342.428339 171.663097 
L 344.954178 172.861683 
L 347.480018 165.641076 
L 350.005857 177.312742 
L 352.531696 180.029925 
L 355.057535 176.579626 
L 357.583375 182.502735 
L 360.109214 185.976307 
L 362.635053 188.61785 
L 365.160893 184.038787 
L 367.686732 180.937591 
L 370.212571 183.52677 
L 372.738411 183.183485 
L 375.26425 181.379492 
L 377.790089 176.451326 
L 380.315929 176.957525 
L 382.841768 181.67623 
L 385.367607 189.891779 
L 387.893446 191.625656 
L 390.419286 184.521416 
L 395.470964 183.671933 
L 397.996804 170.685314 
L 400.522643 167.752851 
L 403.048482 166.280802 
L 405.574322 156.5292 
L 408.100161 162.132298 
L 410.626 165.565141 
L 413.15184 174.077428 
L 415.677679 172.948663 
L 418.203518 177.80119 
L 420.729357 179.325605 
L 423.255197 184.277045 
L 425.781036 180.221635 
L 428.306875 181.827507 
L 430.832715 177.434632 
L 433.358554 188.534438 
L 435.884393 192.333839 
L 438.410233 195.906323 
L 440.936072 198.629324 
L 443.461911 200.39811 
L 445.98775 194.521549 
L 448.51359 182.553146 
L 451.039429 188.458799 
L 453.565268 188.796265 
L 456.091108 190.594144 
L 458.616947 182.564782 
L 461.142786 179.946512 
L 463.668626 170.992029 
L 466.194465 175.693278 
L 468.720304 179.934876 
L 471.246144 179.41704 
L 473.771983 180.865816 
L 476.297822 180.167611 
L 478.823661 183.740095 
L 481.349501 189.122094 
L 483.87534 203.755315 
L 486.401179 199.857001 
L 488.927019 214.241732 
L 491.452858 222.445644 
L 493.978697 221.119054 
L 496.504537 218.256412 
L 499.030376 218.919707 
L 501.556215 222.375824 
L 504.082055 218.745156 
L 506.607894 229.078595 
L 509.133733 223.702414 
L 511.659572 227.472723 
L 514.185412 221.049234 
L 516.711251 209.040102 
L 519.23709 204.362126 
L 521.76293 197.659355 
L 524.288769 175.805527 
L 526.814608 160.584651 
L 529.340448 130.945834 
L 531.866287 115.271124 
L 534.392126 81.408165 
L 536.917966 70.943558 
L 539.443805 83.877812 
L 541.969644 62.320722 
L 544.495483 60.883583 
L 547.021323 32.140796 
L 549.547162 47.949329 
L 552.073001 33.577936 
L 554.598841 39.326493 
L 557.12468 42.200772 
L 559.650519 59.446444 
L 562.176359 56.572165 
L 564.702198 58.009304 
L 567.228037 55.135026 
L 569.753876 62.320722 
L 572.279716 70.943558 
L 574.805555 66.63214 
L 577.331394 78.129255 
L 579.857234 75.254976 
L 582.383073 82.079291 
L 584.908912 82.079291 
L 587.434752 79.263196 
L 589.960591 83.487339 
L 592.48643 79.263196 
L 595.01227 84.895386 
L 597.538109 94.751718 
L 600.063948 100.383908 
L 602.589787 98.975861 
L 605.115627 94.751718 
L 607.641466 93.343671 
L 610.167305 79.263196 
L 612.693145 86.303434 
L 615.218984 83.487339 
L 617.744823 83.487339 
L 620.270663 93.343671 
L 622.796502 89.119528 
L 625.322341 77.855149 
L 630.37402 72.222959 
L 632.899859 77.855149 
L 635.425698 90.22922 
L 637.951538 83.154073 
L 640.477377 88.966632 
L 643.003216 89.414648 
L 645.529056 81.303829 
L 648.054895 87.017476 
L 650.580734 78.220089 
L 653.106574 81.065275 
L 655.632413 75.433086 
L 658.158252 88.082239 
L 660.684091 87.337487 
L 663.209931 91.427806 
L 665.73577 91.427806 
L 668.261609 104.245693 
L 670.787449 107.649444 
L 673.313288 103.402028 
L 675.839127 96.635255 
L 678.364967 99.70154 
L 680.890806 101.522692 
L 683.416645 99.323345 
L 685.942485 102.38963 
L 688.468324 108.231282 
L 688.468324 108.231282 
" clip-path="url(#peb35406624)" style="fill: none; stroke: #4fc3f7; stroke-width: 1.4; stroke-linecap: square"/>
   </g>
   <g id="line2d_23">
    <path d="M 49.304688 173.478148 
L 718.904688 173.478148 
" clip-path="url(#peb35406624)" style="fill: none; stroke-dasharray: 2.59,1.12; stroke-dashoffset: 0; stroke: #9aa0a6; stroke-opacity: 0.7; stroke-width: 0.7"/>
   </g>
   <g id="patch_3">
    <path d="M 49.304688 238.925485 
L 49.304688 22.293906 
" style="fill: none; stroke: #2a2f3a; stroke-width: 0.8; stroke-linejoin: miter; stroke-linecap: square"/>
   </g>
   <g id="patch_4">
    <path d="M 718.904688 238.925485 
L 718.904688 22.293906 
" style="fill: none; stroke: #2a2f3a; stroke-width: 0.8; stroke-linejoin: miter; stroke-linecap: square"/>
   </g>
   <g id="patch_5">
    <path d="M 49.304688 238.925485 
L 718.904688 238.925485 
" style="fill: none; stroke: #2a2f3a; stroke-width: 0.8; stroke-linejoin: miter; stroke-linecap: square"/>
   </g>
   <g id="patch_6">
    <path d="M 49.304688 22.293906 
L 718.904688 22.293906 
" style="fill: none; stroke: #2a2f3a; stroke-width: 0.8; stroke-linejoin: miter; stroke-linecap: square"/>
   </g>
   <g id="text_10">
    <g id="patch_7">
     <path d="M 51.040687 239.421538 
L 273.189437 239.421538 
L 273.189437 220.751538 
L 51.040687 220.751538 
z
" style="fill: #0f1115; opacity: 0.85; stroke: #2a2f3a; stroke-linejoin: miter"/>
    </g>
    <!-- 总收益 11.21% | 年化 11.25% | 回撤 20.30% | Sharpe 0.69 -->
    <g style="fill: #e8eaed" transform="translate(56.000687 232.426538) scale(0.08 -0.08)">
     <defs>
      <path id="MicrosoftYaHei-603b" d="M 900 4253 
L 3631 4253 
Q 4022 4822 4331 5353 
L 4813 5103 
Q 4500 4675 4175 4253 
L 5500 4253 
L 5500 1703 
L 5000 1703 
L 5000 1978 
L 1400 1978 
L 1400 1703 
L 900 1703 
L 900 4253 
z
M 5000 3803 
L 1400 3803 
L 1400 2428 
L 5000 2428 
L 5000 3803 
z
M 1694 1378 
L 2181 1378 
L 2181 284 
Q 2181 -203 2619 -203 
L 3875 -203 
Q 4244 -203 4338 172 
Q 4394 366 4450 872 
Q 4631 791 4931 684 
Q 4850 209 4750 -97 
Q 4556 -641 3900 -641 
L 2519 -641 
Q 1694 -641 1694 197 
L 1694 1378 
z
M 719 1422 
L 1188 1272 
Q 931 491 538 -334 
Q 338 -247 81 -134 
Q 444 597 719 1422 
z
M 4881 1203 
L 5238 1478 
Q 5813 841 6319 197 
L 5900 -134 
Q 5456 491 4881 1203 
z
M 2663 1591 
L 3044 1841 
Q 3488 1372 3863 841 
L 3444 547 
Q 3069 1109 2663 1591 
z
M 1594 5109 
L 1975 5353 
Q 2350 4959 2650 4541 
L 2225 4266 
Q 1956 4653 1594 5109 
z
" transform="scale(0.015625)"/>
      <path id="MicrosoftYaHei-6536" d="M 2244 2659 
Q 3044 4047 3400 5341 
L 3906 5197 
Q 3706 4619 3488 4091 
L 6213 4091 
L 6213 3628 
L 5478 3628 
Q 5384 1819 4550 681 
Q 5184 119 6350 -297 
Q 6156 -541 5994 -797 
Q 4881 -322 4219 300 
Q 3616 -294 2550 -853 
Q 2419 -647 2231 -434 
Q 3297 100 3878 672 
Q 3156 1575 2944 2916 
Q 2769 2575 2581 2259 
Q 2463 2441 2244 2659 
z
M 1681 5291 
L 2156 5291 
L 2156 -816 
L 1681 -816 
L 1681 1113 
Q 1300 900 906 641 
Q 744 522 588 359 
L 231 778 
Q 425 984 425 1316 
L 425 4416 
L 900 4416 
L 900 1216 
Q 1272 1413 1681 1634 
L 1681 5291 
z
M 4984 3628 
L 3322 3628 
Q 3413 2103 4203 1059 
Q 4916 2063 4984 3628 
z
" transform="scale(0.015625)"/>
      <path id="MicrosoftYaHei-76ca" d="M 113 -103 
L 1019 -103 
L 1019 1997 
L 5406 1997 
L 5406 -103 
L 6269 -103 
L 6269 -541 
L 113 -541 
L 113 -103 
z
M 263 4116 
L 3672 4116 
Q 4225 4650 4744 5334 
L 5200 5047 
Q 4775 4553 4331 4116 
L 6175 4116 
L 6175 3678 
L 263 3678 
L 263 4116 
z
M 4956 1572 
L 4081 1572 
L 4081 -103 
L 4956 -103 
L 4956 1572 
z
M 1469 -103 
L 2338 -103 
L 2338 1572 
L 1469 1572 
L 1469 -103 
z
M 2775 -103 
L 3644 -103 
L 3644 1572 
L 2775 1572 
L 2775 -103 
z
M 2338 3484 
L 2644 3078 
Q 1669 2484 456 1872 
Q 331 2116 200 2309 
Q 1369 2872 2338 3484 
z
M 3794 3091 
L 4050 3472 
Q 5300 2884 6213 2384 
L 5938 1922 
Q 4706 2634 3794 3091 
z
M 1238 5016 
L 1563 5341 
Q 2100 4953 2531 4584 
L 2175 4209 
Q 1769 4597 1238 5016 
z
" transform="scale(0.015625)"/>
      <path id="MicrosoftYaHei-20" transform="scale(0.015625)"/>
      <path id="MicrosoftYaHei-25" d="M 272 3619 
Q 272 4213 589 4563 
Q 906 4913 1444 4913 
Q 1959 4913 2248 4591 
Q 2538 4269 2538 3694 
Q 2538 3122 2219 2765 
Q 1900 2409 1372 2409 
Q 872 2409 572 2740 
Q 272 3072 272 3619 
z
M 753 3650 
Q 753 3247 928 3028 
Q 1103 2809 1406 2809 
Q 1719 2809 1889 3036 
Q 2059 3263 2059 3675 
Q 2059 4078 1892 4298 
Q 1725 4519 1422 4519 
Q 1113 4519 933 4289 
Q 753 4059 753 3650 
z
M 4647 4841 
L 1538 -31 
L 1016 -31 
L 4125 4841 
L 4647 4841 
z
M 3172 1134 
Q 3172 1728 3489 2083 
Q 3806 2438 4341 2438 
Q 4853 2438 5143 2114 
Q 5434 1791 5434 1203 
Q 5434 634 5112 279 
Q 4791 -75 4272 -75 
Q 3769 -75 3470 261 
Q 3172 597 3172 1134 
z
M 3650 1163 
Q 3650 769 3825 548 
Q 4000 328 4303 328 
Q 4616 328 4786 556 
Q 4956 784 4956 1194 
Q 4956 1600 4786 1815 
Q 4616 2031 4319 2031 
Q 4000 2031 3825 1801 
Q 3650 1572 3650 1163 
z
" transform="scale(0.015625)"/>
      <path id="MicrosoftYaHei-7c" d="M 1134 -1628 
L 597 -1628 
L 597 5284 
L 1134 5284 
L 1134 -1628 
z
" transform="scale(0.015625)"/>
      <path id="MicrosoftYaHei-5e74" d="M 119 1278 
L 1125 1278 
L 1125 3066 
L 3338 3066 
L 3338 4178 
L 1500 4178 
Q 1078 3419 556 2778 
Q 394 2953 169 3128 
Q 1056 4128 1500 5372 
L 2013 5228 
Q 1881 4919 1738 4628 
L 6038 4628 
L 6038 4178 
L 3844 4178 
L 3844 3066 
L 5931 3066 
L 5931 2628 
L 3844 2628 
L 3844 1278 
L 6319 1278 
L 6319 828 
L 3844 828 
L 3844 -859 
L 3338 -859 
L 3338 828 
L 119 828 
L 119 1278 
z
M 1619 1278 
L 3338 1278 
L 3338 2628 
L 1619 2628 
L 1619 1278 
z
" transform="scale(0.015625)"/>
      <path id="MicrosoftYaHei-5316" d="M 1844 1453 
Q 2663 1834 3375 2331 
L 3375 5197 
L 3913 5197 
L 3913 2734 
Q 4869 3506 5613 4516 
L 6069 4184 
Q 5159 2975 3913 2069 
L 3913 303 
Q 3913 -122 4363 -122 
L 5156 -122 
Q 5581 -122 5650 284 
Q 5738 709 5763 1266 
Q 6025 1166 6313 1084 
Q 6263 559 6181 122 
Q 6063 -597 5281 -597 
L 4225 -597 
Q 3375 -597 3375 241 
L 3375 1703 
Q 2791 1328 2144 1016 
Q 2013 1222 1844 1453 
z
M 88 2222 
Q 1175 3666 1688 5291 
L 2231 5134 
Q 1934 4359 1588 3675 
L 1588 -797 
L 1063 -797 
L 1063 2734 
Q 716 2172 325 1678 
Q 219 1947 88 2222 
z
" transform="scale(0.015625)"/>
      <path id="MicrosoftYaHei-56de" d="M 475 4947 
L 5938 4947 
L 5938 -778 
L 5413 -778 
L 5413 -378 
L 1000 -378 
L 1000 -778 
L 475 -778 
L 475 4947 
z
M 5413 4484 
L 1000 4484 
L 1000 72 
L 5413 72 
L 5413 4484 
z
M 1875 3528 
L 4531 3528 
L 4531 797 
L 4044 797 
L 4044 1147 
L 2363 1147 
L 2363 797 
L 1875 797 
L 1875 3528 
z
M 4044 3091 
L 2363 3091 
L 2363 1584 
L 4044 1584 
L 4044 3091 
z
" transform="scale(0.015625)"/>
      <path id="MicrosoftYaHei-64a4" d="M 4838 5303 
L 5256 5228 
Q 5153 4641 5016 4122 
L 6313 4122 
L 6313 3716 
L 6016 3716 
Q 5878 1894 5413 828 
Q 5759 144 6319 -347 
Q 6181 -628 6069 -828 
Q 5531 -294 5181 384 
Q 4772 -306 4225 -872 
Q 4106 -691 3925 -478 
Q 4575 138 4966 869 
Q 4638 1706 4556 2734 
Q 4422 2422 4275 2147 
Q 4188 2322 4025 2541 
Q 4606 3641 4838 5303 
z
M 2331 -797 
L 1913 -797 
L 1913 2584 
L 3856 2584 
L 3856 -122 
Q 3856 -791 3313 -797 
Q 3081 -803 2706 -803 
Q 2675 -616 2619 -372 
Q 2938 -391 3175 -391 
Q 3444 -391 3444 -84 
L 3444 447 
L 2331 447 
L 2331 -797 
z
M 81 1972 
Q 384 2041 706 2119 
L 706 3541 
L 138 3541 
L 138 3966 
L 706 3966 
L 706 5253 
L 1138 5253 
L 1138 3966 
L 1594 3966 
L 1594 3541 
L 1138 3541 
L 1138 2228 
Q 1394 2294 1663 2366 
Q 1650 2078 1663 1903 
Q 1397 1828 1138 1753 
L 1138 -159 
Q 1138 -759 613 -766 
Q 469 -766 131 -759 
Q 119 -534 88 -266 
Q 363 -297 513 -297 
Q 706 -297 706 -59 
L 706 1631 
Q 425 1550 156 1472 
L 81 1972 
z
M 2256 3316 
Q 2881 3344 3528 3375 
Q 3344 3628 3150 3878 
L 3456 4097 
Q 3856 3634 4219 3153 
L 3875 2884 
Q 3819 2969 3759 3050 
Q 2216 2959 1800 2922 
L 1681 3266 
Q 2122 3716 2456 4209 
L 1650 4209 
L 1650 4597 
L 2884 4597 
Q 2706 4878 2513 5128 
L 2900 5353 
Q 3131 5072 3331 4791 
L 3009 4597 
L 4213 4597 
L 4213 4209 
L 2997 4209 
Q 2731 3838 2256 3316 
z
M 5597 3716 
L 4906 3716 
Q 4869 3597 4831 3484 
Q 4856 2281 5184 1363 
Q 5494 2234 5597 3716 
z
M 3444 2197 
L 2331 2197 
L 2331 1684 
L 3444 1684 
L 3444 2197 
z
M 2331 809 
L 3444 809 
L 3444 1322 
L 2331 1322 
L 2331 809 
z
" transform="scale(0.015625)"/>
      <path id="MicrosoftYaHei-33" d="M 447 809 
Q 944 425 1569 425 
Q 2069 425 2361 670 
Q 2653 916 2653 1328 
Q 2653 2247 1338 2247 
L 934 2247 
L 934 2753 
L 1319 2753 
Q 2484 2753 2484 3616 
Q 2484 4413 1594 4413 
Q 1084 4413 634 4069 
L 634 4647 
Q 1109 4922 1744 4922 
Q 2363 4922 2738 4598 
Q 3113 4275 3113 3759 
Q 3113 2809 2144 2538 
L 2144 2525 
Q 2669 2469 2973 2155 
Q 3278 1841 3278 1372 
Q 3278 719 2808 319 
Q 2338 -81 1556 -81 
Q 869 -81 447 175 
L 447 809 
z
" transform="scale(0.015625)"/>
      <path id="MicrosoftYaHei-53" d="M 400 909 
Q 622 716 994 591 
Q 1366 466 1700 466 
Q 2719 466 2719 1191 
Q 2719 1394 2609 1556 
Q 2500 1719 2309 1844 
Q 2119 1969 1594 2228 
Q 866 2591 634 2902 
Q 403 3213 403 3613 
Q 403 4216 887 4569 
Q 1372 4922 2109 4922 
Q 2831 4922 3169 4747 
L 3169 4066 
Q 2731 4369 2063 4369 
Q 1619 4369 1339 4183 
Q 1059 3997 1059 3666 
Q 1059 3372 1253 3187 
Q 1447 3003 2094 2684 
Q 2806 2344 3090 2003 
Q 3375 1663 3375 1238 
Q 3375 600 2912 259 
Q 2450 -81 1628 -81 
Q 1341 -81 958 -1 
Q 575 78 400 197 
L 400 909 
z
" transform="scale(0.015625)"/>
      <path id="MicrosoftYaHei-68" d="M 3466 0 
L 2856 0 
L 2856 1988 
Q 2856 3031 2081 3031 
Q 1684 3031 1421 2726 
Q 1159 2422 1159 1959 
L 1159 0 
L 547 0 
L 547 5116 
L 1159 5116 
L 1159 2888 
L 1172 2888 
Q 1569 3538 2300 3538 
Q 3466 3538 3466 2128 
L 3466 0 
z
" transform="scale(0.015625)"/>
      <path id="MicrosoftYaHei-61" d="M 628 3216 
Q 1144 3538 1819 3538 
Q 3069 3538 3069 2225 
L 3069 0 
L 2463 0 
L 2463 534 
L 2447 534 
Q 2088 -81 1388 -81 
Q 884 -81 587 191 
Q 291 463 291 925 
Q 291 1894 1438 2053 
L 2463 2197 
Q 2463 3044 1763 3044 
Q 1141 3044 628 2625 
L 628 3216 
z
M 1653 1625 
Q 1228 1569 1067 1412 
Q 906 1256 906 975 
Q 906 728 1081 572 
Q 1256 416 1544 416 
Q 1944 416 2203 697 
Q 2463 978 2463 1403 
L 2463 1734 
L 1653 1625 
z
" transform="scale(0.015625)"/>
      <path id="MicrosoftYaHei-72" d="M 2400 2850 
Q 2247 2959 1978 2959 
Q 1622 2959 1390 2626 
Q 1159 2294 1159 1750 
L 1159 0 
L 547 0 
L 547 3456 
L 1159 3456 
L 1159 2753 
L 1172 2753 
Q 1434 3516 2078 3516 
Q 2288 3516 2400 3469 
L 2400 2850 
z
" transform="scale(0.015625)"/>
      <path id="MicrosoftYaHei-70" d="M 1159 488 
L 1159 -1591 
L 547 -1591 
L 547 3456 
L 1159 3456 
L 1159 2859 
L 1172 2859 
Q 1578 3538 2359 3538 
Q 3022 3538 3398 3073 
Q 3775 2609 3775 1828 
Q 3775 966 3348 442 
Q 2922 -81 2200 -81 
Q 1534 -81 1172 488 
L 1159 488 
z
M 1156 1425 
Q 1156 1003 1428 714 
Q 1700 425 2109 425 
Q 2597 425 2872 800 
Q 3147 1175 3147 1838 
Q 3147 2397 2890 2714 
Q 2634 3031 2191 3031 
Q 1738 3031 1447 2709 
Q 1156 2388 1156 1884 
L 1156 1425 
z
" transform="scale(0.015625)"/>
      <path id="MicrosoftYaHei-65" d="M 3363 1572 
L 944 1572 
Q 959 1019 1246 717 
Q 1534 416 2050 416 
Q 2631 416 3116 788 
L 3116 241 
Q 2659 -81 1906 -81 
Q 1156 -81 736 394 
Q 316 869 316 1713 
Q 316 2506 777 3022 
Q 1238 3538 1922 3538 
Q 2600 3538 2981 3102 
Q 3363 2666 3363 1881 
L 3363 1572 
z
M 2750 2063 
Q 2747 2531 2528 2787 
Q 2309 3044 1913 3044 
Q 1547 3044 1280 2772 
Q 1013 2500 944 2063 
L 2750 2063 
z
" transform="scale(0.015625)"/>
      <path id="MicrosoftYaHei-36" d="M 3181 4219 
Q 2803 4413 2391 4413 
Q 1763 4413 1381 3866 
Q 1000 3319 994 2372 
L 1009 2372 
Q 1353 3038 2106 3038 
Q 2734 3038 3109 2628 
Q 3484 2219 3484 1541 
Q 3484 831 3051 375 
Q 2619 -81 1947 -81 
Q 1209 -81 789 495 
Q 369 1072 369 2131 
Q 369 3413 920 4167 
Q 1472 4922 2372 4922 
Q 2888 4922 3181 4781 
L 3181 4219 
z
M 1031 1584 
Q 1031 1106 1286 765 
Q 1541 425 1963 425 
Q 2363 425 2613 719 
Q 2863 1013 2863 1475 
Q 2863 1975 2627 2253 
Q 2391 2531 1956 2531 
Q 1544 2531 1287 2250 
Q 1031 1969 1031 1584 
z
" transform="scale(0.015625)"/>
     </defs>
     <use xlink:href="#MicrosoftYaHei-603b"/>
     <use xlink:href="#MicrosoftYaHei-6536" transform="translate(100 0)"/>
     <use xlink:href="#MicrosoftYaHei-76ca" transform="translate(200 0)"/>
     <use xlink:href="#MicrosoftYaHei-20" transform="translate(300 0)"/>
     <use xlink:href="#MicrosoftYaHei-31" transform="translate(329.589844 0)"/>
     <use xlink:href="#MicrosoftYaHei-31" transform="translate(388.232422 0)"/>
     <use xlink:href="#MicrosoftYaHei-2e" transform="translate(446.875 0)"/>
     <use xlink:href="#MicrosoftYaHei-32" transform="translate(470.947266 0)"/>
     <use xlink:href="#MicrosoftYaHei-31" transform="translate(529.589844 0)"/>
     <use xlink:href="#MicrosoftYaHei-25" transform="translate(588.232422 0)"/>
     <use xlink:href="#MicrosoftYaHei-20" transform="translate(677.197266 0)"/>
     <use xlink:href="#MicrosoftYaHei-7c" transform="translate(706.787109 0)"/>
     <use xlink:href="#MicrosoftYaHei-20" transform="translate(733.691406 0)"/>
     <use xlink:href="#MicrosoftYaHei-5e74" transform="translate(763.28125 0)"/>
     <use xlink:href="#MicrosoftYaHei-5316" transform="translate(863.28125 0)"/>
     <use xlink:href="#MicrosoftYaHei-20" transform="translate(963.28125 0)"/>
     <use xlink:href="#MicrosoftYaHei-31" transform="translate(992.871094 0)"/>
     <use xlink:href="#MicrosoftYaHei-31" transform="translate(1051.513672 0)"/>
     <use xlink:href="#MicrosoftYaHei-2e" transform="translate(1110.15625 0)"/>
     <use xlink:href="#MicrosoftYaHei-32" transform="translate(1134.228516 0)"/>
     <use xlink:href="#MicrosoftYaHei-35" transform="translate(1192.871094 0)"/>
     <use xlink:href="#MicrosoftYaHei-25" transform="translate(1251.513672 0)"/>
     <use xlink:href="#MicrosoftYaHei-20" transform="translate(1340.478516 0)"/>
     <use xlink:href="#MicrosoftYaHei-7c" transform="translate(1370.068359 0)"/>
     <use xlink:href="#MicrosoftYaHei-20" transform="translate(1396.972656 0)"/>
     <use xlink:href="#MicrosoftYaHei-56de" transform="translate(1426.5625 0)"/>
     <use xlink:href="#MicrosoftYaHei-64a4" transform="translate(1526.5625 0)"/>
     <use xlink:href="#MicrosoftYaHei-20" transform="translate(1626.5625 0)"/>
     <use xlink:href="#MicrosoftYaHei-32" transform="translate(1656.152344 0)"/>
     <use xlink:href="#MicrosoftYaHei-30" transform="translate(1714.794922 0)"/>
     <use xlink:href="#MicrosoftYaHei-2e" transform="translate(1773.4375 0)"/>
     <use xlink:href="#MicrosoftYaHei-33" transform="translate(1797.509766 0)"/>
     <use xlink:href="#MicrosoftYaHei-30" transform="translate(1856.152344 0)"/>
     <use xlink:href="#MicrosoftYaHei-25" transform="translate(1914.794922 0)"/>
     <use xlink:href="#MicrosoftYaHei-20" transform="translate(2003.759766 0)"/>
     <use xlink:href="#MicrosoftYaHei-7c" transform="translate(2033.349609 0)"/>
     <use xlink:href="#MicrosoftYaHei-20" transform="translate(2060.253906 0)"/>
     <use xlink:href="#MicrosoftYaHei-53" transform="translate(2089.84375 0)"/>
     <use xlink:href="#MicrosoftYaHei-68" transform="translate(2147.558594 0)"/>
     <use xlink:href="#MicrosoftYaHei-61" transform="translate(2209.130859 0)"/>
     <use xlink:href="#MicrosoftYaHei-72" transform="translate(2264.404297 0)"/>
     <use xlink:href="#MicrosoftYaHei-70" transform="translate(2302.587891 0)"/>
     <use xlink:href="#MicrosoftYaHei-65" transform="translate(2366.455078 0)"/>
     <use xlink:href="#MicrosoftYaHei-20" transform="translate(2423.193359 0)"/>
     <use xlink:href="#MicrosoftYaHei-30" transform="translate(2452.783203 0)"/>
     <use xlink:href="#MicrosoftYaHei-2e" transform="translate(2511.425781 0)"/>
     <use xlink:href="#MicrosoftYaHei-36" transform="translate(2535.498047 0)"/>
     <use xlink:href="#MicrosoftYaHei-39" transform="translate(2594.140625 0)"/>
    </g>
   </g>
   <g id="text_11">
    <!-- 组合回测 market_auntie | asof=2024-12-02 -->
    <g style="fill: #e8eaed" transform="translate(272.962578 16.293906) scale(0.11 -0.11)">
     <defs>
      <path id="MicrosoftYaHei-7ec4" d="M 1994 -516 
L 1994 -66 
L 2738 -66 
L 2738 4941 
L 5763 4941 
L 5763 -66 
L 6313 -66 
L 6313 -516 
L 1994 -516 
z
M 969 1703 
Q 1606 1784 2300 1872 
Q 2275 1603 2256 1447 
Q 1331 1328 400 1191 
L 300 1647 
Q 697 1956 1284 2941 
Q 597 2897 256 2866 
L 131 3278 
Q 619 3866 1200 5291 
L 1706 5116 
Q 1163 4091 681 3316 
Q 1197 3319 1506 3328 
Q 1756 3775 2038 4334 
L 2519 4122 
Q 1806 2859 969 1703 
z
M 5288 4491 
L 3213 4491 
L 3213 3259 
L 5288 3259 
L 5288 4491 
z
M 3213 -66 
L 5288 -66 
L 5288 1166 
L 3213 1166 
L 3213 -66 
z
M 3213 1597 
L 5288 1597 
L 5288 2828 
L 3213 2828 
L 3213 1597 
z
M 181 291 
Q 1088 459 2356 741 
Q 2331 453 2331 266 
Q 1031 -3 319 -184 
L 181 291 
z
" transform="scale(0.015625)"/>
      <path id="MicrosoftYaHei-5408" d="M 1025 1909 
L 5381 1909 
L 5381 -866 
L 4881 -866 
L 4881 -447 
L 1525 -447 
L 1525 -878 
L 1025 -878 
L 1025 1909 
z
M 3700 5234 
L 3550 5053 
Q 4594 3697 6319 3009 
Q 6125 2734 5988 2509 
Q 5481 2753 5025 3059 
L 5025 2703 
L 1369 2703 
L 1369 3016 
Q 913 2716 394 2428 
Q 269 2641 81 2897 
Q 2013 3866 3000 5234 
L 3700 5234 
z
M 4881 1453 
L 1525 1453 
L 1525 -3 
L 4881 -3 
L 4881 1453 
z
M 3219 4691 
Q 2581 3872 1550 3147 
L 4894 3147 
Q 3944 3797 3219 4691 
z
" transform="scale(0.015625)"/>
      <path id="MicrosoftYaHei-6d4b" d="M 875 1753 
Q 1175 1597 1369 1522 
Q 950 -41 763 -784 
L 250 -547 
Q 619 497 875 1753 
z
M 638 5166 
Q 1019 4847 1588 4303 
Q 1381 4103 1213 3928 
Q 756 4434 313 4853 
L 638 5166 
z
M 356 3559 
Q 881 3134 1350 2716 
Q 1188 2547 988 2322 
Q 425 2878 50 3216 
L 356 3559 
z
M 5575 5284 
L 6031 5284 
L 6031 -34 
Q 6031 -753 5338 -753 
Q 5038 -753 4625 -741 
Q 4600 -509 4538 -228 
Q 4938 -272 5219 -272 
Q 5575 -272 5575 84 
L 5575 5284 
z
M 5038 634 
L 4600 634 
L 4600 4778 
L 5038 4778 
L 5038 634 
z
M 1706 4941 
L 4063 4941 
L 4063 991 
L 3613 991 
L 3613 4503 
L 2156 4503 
L 2156 991 
L 1706 991 
L 1706 4941 
z
M 2681 3966 
L 3138 3966 
L 3138 2416 
Q 3138 1466 2963 891 
Q 3775 266 4375 -234 
L 4038 -616 
Q 3538 -141 2800 472 
Q 2413 -297 1406 -884 
Q 1269 -684 1100 -484 
Q 2031 53 2375 709 
Q 2681 1278 2681 2403 
L 2681 3966 
z
" transform="scale(0.015625)"/>
      <path id="MicrosoftYaHei-6d" d="M 5522 0 
L 4909 0 
L 4909 1984 
Q 4909 2547 4734 2789 
Q 4559 3031 4159 3031 
Q 3822 3031 3581 2715 
Q 3341 2400 3341 1969 
L 3341 0 
L 2728 0 
L 2728 2047 
Q 2728 3031 1969 3031 
Q 1619 3031 1389 2731 
Q 1159 2431 1159 1966 
L 1159 0 
L 547 0 
L 547 3456 
L 1159 3456 
L 1159 2909 
L 1172 2909 
Q 1541 3538 2250 3538 
Q 2597 3538 2862 3347 
Q 3128 3156 3231 2831 
Q 3616 3538 4381 3538 
Q 5522 3538 5522 2131 
L 5522 0 
z
" transform="scale(0.015625)"/>
      <path id="MicrosoftYaHei-6b" d="M 3484 0 
L 2650 0 
L 1172 1666 
L 1159 1666 
L 1159 0 
L 547 0 
L 547 5116 
L 1159 5116 
L 1159 1872 
L 1172 1872 
L 2575 3456 
L 3363 3456 
L 1800 1794 
L 3484 0 
z
" transform="scale(0.015625)"/>
      <path id="MicrosoftYaHei-74" d="M 2206 34 
Q 2006 -75 1666 -75 
Q 738 -75 738 953 
L 738 2950 
L 144 2950 
L 144 3456 
L 738 3456 
L 738 4288 
L 1347 4481 
L 1347 3456 
L 2206 3456 
L 2206 2950 
L 1347 2950 
L 1347 1063 
Q 1347 722 1462 575 
Q 1578 428 1847 428 
Q 2053 428 2206 544 
L 2206 34 
z
" transform="scale(0.015625)"/>
      <path id="MicrosoftYaHei-5f" d="M 2869 -1634 
L 0 -1634 
L 0 -1231 
L 2869 -1231 
L 2869 -1634 
z
" transform="scale(0.015625)"/>
      <path id="MicrosoftYaHei-75" d="M 3400 0 
L 2784 0 
L 2784 544 
L 2772 544 
Q 2425 -81 1706 -81 
Q 478 -81 478 1388 
L 478 3456 
L 1084 3456 
L 1084 1478 
Q 1084 425 1891 425 
Q 2291 425 2537 720 
Q 2784 1016 2784 1466 
L 2784 3456 
L 3400 3456 
L 3400 0 
z
" transform="scale(0.015625)"/>
      <path id="MicrosoftYaHei-6e" d="M 3469 0 
L 2859 0 
L 2859 1966 
Q 2859 3031 2081 3031 
Q 1678 3031 1418 2731 
Q 1159 2431 1159 1972 
L 1159 0 
L 547 0 
L 547 3456 
L 1159 3456 
L 1159 2884 
L 1172 2884 
Q 1563 3538 2306 3538 
Q 2875 3538 3172 3173 
Q 3469 2809 3469 2113 
L 3469 0 
z
" transform="scale(0.015625)"/>
      <path id="MicrosoftYaHei-69" d="M 472 4675 
Q 472 4838 583 4948 
Q 694 5059 856 5059 
Q 1022 5059 1136 4950 
Q 1250 4841 1250 4675 
Q 1250 4513 1136 4405 
Q 1022 4297 856 4297 
Q 691 4297 581 4405 
Q 472 4513 472 4675 
z
M 544 0 
L 544 3456 
L 1156 3456 
L 1156 0 
L 544 0 
z
" transform="scale(0.015625)"/>
      <path id="MicrosoftYaHei-73" d="M 353 747 
Q 816 413 1350 413 
Q 2066 413 2066 881 
Q 2066 1081 1909 1211 
Q 1753 1341 1275 1519 
Q 700 1750 528 1976 
Q 356 2203 356 2525 
Q 356 2984 745 3261 
Q 1134 3538 1703 3538 
Q 2144 3538 2522 3384 
L 2522 2794 
Q 2134 3044 1644 3044 
Q 1350 3044 1165 2916 
Q 981 2788 981 2578 
Q 981 2372 1114 2256 
Q 1247 2141 1703 1959 
Q 2281 1744 2484 1512 
Q 2688 1281 2688 941 
Q 2688 466 2298 192 
Q 1909 -81 1291 -81 
Q 753 -81 353 122 
L 353 747 
z
" transform="scale(0.015625)"/>
      <path id="MicrosoftYaHei-6f" d="M 316 1691 
Q 316 2547 794 3042 
Q 1272 3538 2091 3538 
Q 2869 3538 3311 3061 
Q 3753 2584 3753 1744 
Q 3753 925 3281 422 
Q 2809 -81 2016 -81 
Q 1241 -81 778 406 
Q 316 894 316 1691 
z
M 941 1709 
Q 941 1113 1242 769 
Q 1544 425 2053 425 
Q 2578 425 2853 761 
Q 3128 1097 3128 1725 
Q 3128 2356 2853 2693 
Q 2578 3031 2053 3031 
Q 1538 3031 1239 2678 
Q 941 2325 941 1709 
z
" transform="scale(0.015625)"/>
      <path id="MicrosoftYaHei-66" d="M 2319 4594 
Q 2147 4684 1947 4684 
Q 1372 4684 1372 3972 
L 1372 3456 
L 2181 3456 
L 2181 2950 
L 1372 2950 
L 1372 0 
L 766 0 
L 766 2950 
L 175 2950 
L 175 3456 
L 766 3456 
L 766 4000 
Q 766 4556 1086 4873 
Q 1406 5191 1900 5191 
Q 2163 5191 2319 5131 
L 2319 4594 
z
" transform="scale(0.015625)"/>
      <path id="MicrosoftYaHei-3d" d="M 3972 2497 
L 788 2497 
L 788 2969 
L 3972 2969 
L 3972 2497 
z
M 3972 1053 
L 788 1053 
L 788 1525 
L 3972 1525 
L 3972 1053 
z
" transform="scale(0.015625)"/>
      <path id="MicrosoftYaHei-34" d="M 2906 4841 
L 2906 1644 
L 3631 1644 
L 3631 1138 
L 2906 1138 
L 2906 0 
L 2313 0 
L 2313 1138 
L 53 1138 
L 53 1616 
Q 656 2294 1265 3178 
Q 1875 4063 2272 4841 
L 2906 4841 
z
M 741 1644 
L 2313 1644 
L 2313 3950 
Q 1988 3366 1616 2817 
Q 1244 2269 741 1644 
z
" transform="scale(0.015625)"/>
      <path id="MicrosoftYaHei-2d" d="M 2328 1681 
L 488 1681 
L 488 2153 
L 2328 2153 
L 2328 1681 
z
" transform="scale(0.015625)"/>
     </defs>
     <use xlink:href="#MicrosoftYaHei-7ec4"/>
     <use xlink:href="#MicrosoftYaHei-5408" transform="translate(100 0)"/>
     <use xlink:href="#MicrosoftYaHei-56de" transform="translate(200 0)"/>
     <use xlink:href="#MicrosoftYaHei-6d4b" transform="translate(300 0)"/>
     <use xlink:href="#MicrosoftYaHei-20" transform="translate(400 0)"/>
     <use xlink:href="#MicrosoftYaHei-6d" transform="translate(429.589844 0)"/>
     <use xlink:href="#MicrosoftYaHei-61" transform="translate(523.291016 0)"/>
     <use xlink:href="#MicrosoftYaHei-72" transform="translate(578.564453 0)"/>
     <use xlink:href="#MicrosoftYaHei-6b" transform="translate(616.748047 0)"/>
     <use xlink:href="#MicrosoftYaHei-65" transform="translate(669.066406 0)"/>
     <use xlink:href="#MicrosoftYaHei-74" transform="translate(725.804688 0)"/>
     <use xlink:href="#MicrosoftYaHei-5f" transform="translate(763.060547 0)"/>
     <use xlink:href="#MicrosoftYaHei-61" transform="translate(807.884766 0)"/>
     <use xlink:href="#MicrosoftYaHei-75" transform="translate(863.158203 0)"/>
     <use xlink:href="#MicrosoftYaHei-6e" transform="translate(924.779297 0)"/>
     <use xlink:href="#MicrosoftYaHei-74" transform="translate(986.400391 0)"/>
     <use xlink:href="#MicrosoftYaHei-69" transform="translate(1023.65625 0)"/>
     <use xlink:href="#MicrosoftYaHei-65" transform="translate(1050.267578 0)"/>
     <use xlink:href="#MicrosoftYaHei-20" transform="translate(1107.005859 0)"/>
     <use xlink:href="#MicrosoftYaHei-7c" transform="translate(1136.595703 0)"/>
     <use xlink:href="#MicrosoftYaHei-20" transform="translate(1163.5 0)"/>
     <use xlink:href="#MicrosoftYaHei-61" transform="translate(1193.089844 0)"/>
     <use xlink:href="#MicrosoftYaHei-73" transform="translate(1248.363281 0)"/>
     <use xlink:href="#MicrosoftYaHei-6f" transform="translate(1294.652344 0)"/>
     <use xlink:href="#MicrosoftYaHei-66" transform="translate(1356.226562 0)"/>
     <use xlink:href="#MicrosoftYaHei-3d" transform="translate(1390.894531 0)"/>
     <use xlink:href="#MicrosoftYaHei-32" transform="translate(1465.064453 0)"/>
     <use xlink:href="#MicrosoftYaHei-30" transform="translate(1523.707031 0)"/>
     <use xlink:href="#MicrosoftYaHei-32" transform="translate(1582.349609 0)"/>
     <use xlink:href="#MicrosoftYaHei-34" transform="translate(1640.992188 0)"/>
     <use xlink:href="#MicrosoftYaHei-2d" transform="translate(1699.634766 0)"/>
     <use xlink:href="#MicrosoftYaHei-31" transform="translate(1742.896484 0)"/>
     <use xlink:href="#MicrosoftYaHei-32" transform="translate(1801.539062 0)"/>
     <use xlink:href="#MicrosoftYaHei-2d" transform="translate(1860.181641 0)"/>
     <use xlink:href="#MicrosoftYaHei-30" transform="translate(1903.443359 0)"/>
     <use xlink:href="#MicrosoftYaHei-32" transform="translate(1962.085938 0)"/>
    </g>
   </g>
   <g id="legend_1">
    <g id="patch_8">
     <path d="M 639.904688 45.773594 
L 711.904688 45.773594 
Q 713.904688 45.773594 713.904688 43.773594 
L 713.904688 29.293906 
Q 713.904688 27.293906 711.904688 27.293906 
L 639.904688 27.293906 
Q 637.904688 27.293906 637.904688 29.293906 
L 637.904688 43.773594 
Q 637.904688 45.773594 639.904688 45.773594 
z
" style="fill: #1a1d24; opacity: 0.8; stroke: #2a2f3a; stroke-linejoin: miter"/>
    </g>
    <g id="line2d_24">
     <path d="M 641.904688 35.787656 
L 651.904688 35.787656 
L 661.904688 35.787656 
" style="fill: none; stroke: #4fc3f7; stroke-width: 1.4; stroke-linecap: square"/>
    </g>
    <g id="text_12">
     <!-- 组合净值 -->
     <g style="fill: #e8eaed" transform="translate(669.904688 39.287656) scale(0.1 -0.1)">
      <use xlink:href="#MicrosoftYaHei-7ec4"/>
      <use xlink:href="#MicrosoftYaHei-5408" transform="translate(100 0)"/>
      <use xlink:href="#MicrosoftYaHei-51c0" transform="translate(200 0)"/>
      <use xlink:href="#MicrosoftYaHei-503c" transform="translate(300 0)"/>
     </g>
    </g>
   </g>
  </g>
  <g id="axes_2">
   <g id="patch_9">
    <path d="M 49.304688 410.373906 
L 718.904688 410.373906 
L 718.904688 286.584433 
L 49.304688 286.584433 
z
" style="fill: #0f1115"/>
   </g>
   <g id="FillBetweenPolyCollection_1">
    <defs>
     <path id="m43d240e467" d="M 79.741051 -60.282385 
L 79.741051 -60.282385 
L 82.26689 -60.282385 
L 84.79273 -60.282385 
L 87.318569 -60.778231 
L 89.844408 -65.240849 
L 92.370248 -64.414438 
L 94.896087 -66.811029 
L 97.421926 -72.926468 
L 99.947766 -70.447236 
L 102.473605 -69.290261 
L 104.999444 -63.75331 
L 107.525284 -69.20762 
L 110.051123 -68.711773 
L 112.576962 -68.215927 
L 115.102801 -68.215927 
L 117.628641 -66.976311 
L 120.15448 -60.282385 
L 122.680319 -60.282385 
L 125.206159 -60.282385 
L 127.731998 -60.282385 
L 130.257837 -65.210695 
L 132.783677 -64.495295 
L 135.309516 -76.846139 
L 137.835355 -71.833041 
L 140.361194 -64.361087 
L 142.887034 -60.282385 
L 145.412873 -67.392713 
L 147.938712 -70.711566 
L 150.464552 -60.282385 
L 152.990391 -60.282385 
L 155.51623 -60.282385 
L 158.04207 -60.282385 
L 160.567909 -60.282385 
L 163.093748 -74.877255 
L 165.619588 -72.071326 
L 168.145427 -73.56513 
L 170.671266 -69.729687 
L 173.197105 -79.03468 
L 175.722945 -80.528484 
L 178.248784 -70.85913 
L 180.774623 -77.39957 
L 183.300463 -75.391009 
L 185.826302 -76.76874 
L 188.352141 -79.03468 
L 190.877981 -85.716425 
L 193.40382 -89.21879 
L 195.929659 -86.695472 
L 198.455499 -84.828217 
L 200.981338 -86.720706 
L 203.507177 -92.231632 
L 206.033016 -88.961412 
L 208.558856 -85.716425 
L 211.084695 -85.433814 
L 213.610534 -82.794423 
L 216.136374 -78.171705 
L 218.662213 -74.270656 
L 221.188052 -81.20978 
L 223.713892 -78.918607 
L 226.239731 -86.095871 
L 228.76557 -92.676684 
L 231.291409 -98.762926 
L 233.817249 -99.126284 
L 236.343088 -102.285478 
L 238.868927 -109.492073 
L 241.394767 -113.731247 
L 243.920606 -122.5023 
L 246.446445 -113.89274 
L 248.972285 -113.721154 
L 251.498124 -109.966457 
L 254.023963 -113.186211 
L 256.549803 -114.32675 
L 259.075642 -117.385011 
L 261.601481 -118.475085 
L 264.12732 -118.979748 
L 266.65316 -115.093839 
L 269.178999 -112.853133 
L 271.704838 -101.276151 
L 274.230678 -97.783879 
L 276.756517 -105.748227 
L 279.282356 -103.855738 
L 281.808196 -109.603856 
L 284.334035 -109.275825 
L 286.859874 -100.792431 
L 289.385714 -103.159303 
L 291.911553 -105.500942 
L 294.437392 -99.157321 
L 296.963231 -85.79383 
L 299.489071 -63.03855 
L 302.01491 -60.282385 
L 304.540749 -60.282385 
L 307.066589 -60.282385 
L 309.592428 -60.282385 
L 312.118267 -74.829225 
L 314.644107 -73.158634 
L 317.169946 -80.476017 
L 319.695785 -81.311312 
L 322.221625 -91.476515 
L 324.747464 -93.147105 
L 327.273303 -107.582404 
L 329.799142 -101.241975 
L 332.324982 -105.828773 
L 334.850821 -108.857329 
L 337.37666 -111.055475 
L 339.9025 -120.971554 
L 342.428339 -124.615591 
L 344.954178 -125.621853 
L 347.480018 -119.559856 
L 350.005857 -129.358701 
L 352.531696 -131.639888 
L 355.057535 -128.74322 
L 357.583375 -133.715914 
L 360.109214 -136.632121 
L 362.635053 -138.849806 
L 365.160893 -135.005493 
L 367.686732 -132.401912 
L 370.212571 -134.575633 
L 372.738411 -134.287432 
L 375.26425 -132.772906 
L 377.790089 -128.635507 
L 380.315929 -129.060482 
L 382.841768 -133.022029 
L 385.367607 -139.919322 
L 387.893446 -141.374982 
L 390.419286 -135.41068 
L 392.945125 -135.054092 
L 395.470964 -134.697504 
L 397.996804 -123.794702 
L 400.522643 -121.332778 
L 403.048482 -120.096932 
L 405.574322 -111.910061 
L 408.100161 -116.614092 
L 410.626 -119.496106 
L 413.15184 -126.642522 
L 415.677679 -125.694877 
L 418.203518 -129.768773 
L 420.729357 -131.048582 
L 423.255197 -135.20552 
L 425.781036 -131.800837 
L 428.306875 -133.149033 
L 430.832715 -129.461033 
L 433.358554 -138.779778 
L 435.884393 -141.969531 
L 438.410233 -144.968779 
L 440.936072 -147.254851 
L 443.461911 -148.73982 
L 445.98775 -143.806204 
L 448.51359 -133.758236 
L 451.039429 -138.716276 
L 453.565268 -138.999592 
L 456.091108 -140.508986 
L 458.616947 -133.768005 
L 461.142786 -131.56986 
L 463.668626 -124.052201 
L 466.194465 -127.999094 
L 468.720304 -131.56009 
L 471.246144 -131.125346 
L 473.771983 -132.341653 
L 476.297822 -131.755481 
L 478.823661 -134.754729 
L 481.349501 -139.273139 
L 483.87534 -151.558331 
L 486.401179 -148.285537 
L 488.927019 -160.362111 
L 491.452858 -167.249634 
L 493.978697 -166.135907 
L 496.504537 -163.732601 
L 499.030376 -164.289465 
L 501.556215 -167.191017 
L 504.082055 -164.142922 
L 506.607894 -172.81827 
L 509.133733 -168.304744 
L 511.659572 -171.470074 
L 514.185412 -166.07729 
L 516.711251 -155.995128 
L 519.23709 -152.067775 
L 521.76293 -146.440522 
L 524.288769 -128.093332 
L 526.814608 -115.314779 
L 529.340448 -90.431769 
L 531.866287 -77.272204 
L 534.392126 -60.282385 
L 536.917966 -60.282385 
L 539.443805 -70.758983 
L 541.969644 -60.282385 
L 544.495483 -60.282385 
L 547.021323 -60.282385 
L 549.547162 -72.400064 
L 552.073001 -61.383992 
L 554.598841 -65.790421 
L 557.12468 -67.993635 
L 559.650519 -81.212922 
L 562.176359 -79.009708 
L 564.702198 -80.111315 
L 567.228037 -77.908101 
L 569.753876 -83.416137 
L 572.279716 -90.02578 
L 574.805555 -86.720958 
L 577.331394 -95.533816 
L 579.857234 -93.330602 
L 582.383073 -98.561629 
L 584.908912 -98.561629 
L 587.434752 -96.403014 
L 589.960591 -99.640936 
L 592.48643 -96.403014 
L 595.01227 -100.720244 
L 597.538109 -108.275396 
L 600.063948 -112.592626 
L 602.589787 -111.513319 
L 605.115627 -108.275396 
L 607.641466 -107.196089 
L 610.167305 -96.403014 
L 612.693145 -101.799551 
L 615.218984 -99.640936 
L 617.744823 -99.640936 
L 620.270663 -107.196089 
L 622.796502 -103.958166 
L 625.322341 -95.323706 
L 627.848181 -93.165091 
L 630.37402 -91.006477 
L 632.899859 -95.323706 
L 635.425698 -104.808776 
L 637.951538 -99.385479 
L 640.477377 -103.840967 
L 643.003216 -104.184383 
L 645.529056 -97.967215 
L 648.054895 -102.346885 
L 650.580734 -95.603443 
L 653.106574 -97.784358 
L 655.632413 -93.467128 
L 658.158252 -103.163055 
L 660.684091 -102.592182 
L 663.209931 -105.727525 
L 665.73577 -105.727525 
L 668.261609 -115.552792 
L 670.787449 -118.161861 
L 673.313288 -114.906099 
L 675.839127 -109.719179 
L 678.364967 -112.069572 
L 680.890806 -113.465536 
L 683.416645 -111.779675 
L 685.942485 -114.130068 
L 688.468324 -118.607856 
L 688.468324 -60.282385 
L 688.468324 -60.282385 
L 685.942485 -60.282385 
L 683.416645 -60.282385 
L 680.890806 -60.282385 
L 678.364967 -60.282385 
L 675.839127 -60.282385 
L 673.313288 -60.282385 
L 670.787449 -60.282385 
L 668.261609 -60.282385 
L 665.73577 -60.282385 
L 663.209931 -60.282385 
L 660.684091 -60.282385 
L 658.158252 -60.282385 
L 655.632413 -60.282385 
L 653.106574 -60.282385 
L 650.580734 -60.282385 
L 648.054895 -60.282385 
L 645.529056 -60.282385 
L 643.003216 -60.282385 
L 640.477377 -60.282385 
L 637.951538 -60.282385 
L 635.425698 -60.282385 
L 632.899859 -60.282385 
L 630.37402 -60.282385 
L 627.848181 -60.282385 
L 625.322341 -60.282385 
L 622.796502 -60.282385 
L 620.270663 -60.282385 
L 617.744823 -60.282385 
L 615.218984 -60.282385 
L 612.693145 -60.282385 
L 610.167305 -60.282385 
L 607.641466 -60.282385 
L 605.115627 -60.282385 
L 602.589787 -60.282385 
L 600.063948 -60.282385 
L 597.538109 -60.282385 
L 595.01227 -60.282385 
L 592.48643 -60.282385 
L 589.960591 -60.282385 
L 587.434752 -60.282385 
L 584.908912 -60.282385 
L 582.383073 -60.282385 
L 579.857234 -60.282385 
L 577.331394 -60.282385 
L 574.805555 -60.282385 
L 572.279716 -60.282385 
L 569.753876 -60.282385 
L 567.228037 -60.282385 
L 564.702198 -60.282385 
L 562.176359 -60.282385 
L 559.650519 -60.282385 
L 557.12468 -60.282385 
L 554.598841 -60.282385 
L 552.073001 -60.282385 
L 549.547162 -60.282385 
L 547.021323 -60.282385 
L 544.495483 -60.282385 
L 541.969644 -60.282385 
L 539.443805 -60.282385 
L 536.917966 -60.282385 
L 534.392126 -60.282385 
L 531.866287 -60.282385 
L 529.340448 -60.282385 
L 526.814608 -60.282385 
L 524.288769 -60.282385 
L 521.76293 -60.282385 
L 519.23709 -60.282385 
L 516.711251 -60.282385 
L 514.185412 -60.282385 
L 511.659572 -60.282385 
L 509.133733 -60.282385 
L 506.607894 -60.282385 
L 504.082055 -60.282385 
L 501.556215 -60.282385 
L 499.030376 -60.282385 
L 496.504537 -60.282385 
L 493.978697 -60.282385 
L 491.452858 -60.282385 
L 488.927019 -60.282385 
L 486.401179 -60.282385 
L 483.87534 -60.282385 
L 481.349501 -60.282385 
L 478.823661 -60.282385 
L 476.297822 -60.282385 
L 473.771983 -60.282385 
L 471.246144 -60.282385 
L 468.720304 -60.282385 
L 466.194465 -60.282385 
L 463.668626 -60.282385 
L 461.142786 -60.282385 
L 458.616947 -60.282385 
L 456.091108 -60.282385 
L 453.565268 -60.282385 
L 451.039429 -60.282385 
L 448.51359 -60.282385 
L 445.98775 -60.282385 
L 443.461911 -60.282385 
L 440.936072 -60.282385 
L 438.410233 -60.282385 
L 435.884393 -60.282385 
L 433.358554 -60.282385 
L 430.832715 -60.282385 
L 428.306875 -60.282385 
L 425.781036 -60.282385 
L 423.255197 -60.282385 
L 420.729357 -60.282385 
L 418.203518 -60.282385 
L 415.677679 -60.282385 
L 413.15184 -60.282385 
L 410.626 -60.282385 
L 408.100161 -60.282385 
L 405.574322 -60.282385 
L 403.048482 -60.282385 
L 400.522643 -60.282385 
L 397.996804 -60.282385 
L 395.470964 -60.282385 
L 392.945125 -60.282385 
L 390.419286 -60.282385 
L 387.893446 -60.282385 
L 385.367607 -60.282385 
L 382.841768 -60.282385 
L 380.315929 -60.282385 
L 377.790089 -60.282385 
L 375.26425 -60.282385 
L 372.738411 -60.282385 
L 370.212571 -60.282385 
L 367.686732 -60.282385 
L 365.160893 -60.282385 
L 362.635053 -60.282385 
L 360.109214 -60.282385 
L 357.583375 -60.282385 
L 355.057535 -60.282385 
L 352.531696 -60.282385 
L 350.005857 -60.282385 
L 347.480018 -60.282385 
L 344.954178 -60.282385 
L 342.428339 -60.282385 
L 339.9025 -60.282385 
L 337.37666 -60.282385 
L 334.850821 -60.282385 
L 332.324982 -60.282385 
L 329.799142 -60.282385 
L 327.273303 -60.282385 
L 324.747464 -60.282385 
L 322.221625 -60.282385 
L 319.695785 -60.282385 
L 317.169946 -60.282385 
L 314.644107 -60.282385 
L 312.118267 -60.282385 
L 309.592428 -60.282385 
L 307.066589 -60.282385 
L 304.540749 -60.282385 
L 302.01491 -60.282385 
L 299.489071 -60.282385 
L 296.963231 -60.282385 
L 294.437392 -60.282385 
L 291.911553 -60.282385 
L 289.385714 -60.282385 
L 286.859874 -60.282385 
L 284.334035 -60.282385 
L 281.808196 -60.282385 
L 279.282356 -60.282385 
L 276.756517 -60.282385 
L 274.230678 -60.282385 
L 271.704838 -60.282385 
L 269.178999 -60.282385 
L 266.65316 -60.282385 
L 264.12732 -60.282385 
L 261.601481 -60.282385 
L 259.075642 -60.282385 
L 256.549803 -60.282385 
L 254.023963 -60.282385 
L 251.498124 -60.282385 
L 248.972285 -60.282385 
L 246.446445 -60.282385 
L 243.920606 -60.282385 
L 241.394767 -60.282385 
L 238.868927 -60.282385 
L 236.343088 -60.282385 
L 233.817249 -60.282385 
L 231.291409 -60.282385 
L 228.76557 -60.282385 
L 226.239731 -60.282385 
L 223.713892 -60.282385 
L 221.188052 -60.282385 
L 218.662213 -60.282385 
L 216.136374 -60.282385 
L 213.610534 -60.282385 
L 211.084695 -60.282385 
L 208.558856 -60.282385 
L 206.033016 -60.282385 
L 203.507177 -60.282385 
L 200.981338 -60.282385 
L 198.455499 -60.282385 
L 195.929659 -60.282385 
L 193.40382 -60.282385 
L 190.877981 -60.282385 
L 188.352141 -60.282385 
L 185.826302 -60.282385 
L 183.300463 -60.282385 
L 180.774623 -60.282385 
L 178.248784 -60.282385 
L 175.722945 -60.282385 
L 173.197105 -60.282385 
L 170.671266 -60.282385 
L 168.145427 -60.282385 
L 165.619588 -60.282385 
L 163.093748 -60.282385 
L 160.567909 -60.282385 
L 158.04207 -60.282385 
L 155.51623 -60.282385 
L 152.990391 -60.282385 
L 150.464552 -60.282385 
L 147.938712 -60.282385 
L 145.412873 -60.282385 
L 142.887034 -60.282385 
L 140.361194 -60.282385 
L 137.835355 -60.282385 
L 135.309516 -60.282385 
L 132.783677 -60.282385 
L 130.257837 -60.282385 
L 127.731998 -60.282385 
L 125.206159 -60.282385 
L 122.680319 -60.282385 
L 120.15448 -60.282385 
L 117.628641 -60.282385 
L 115.102801 -60.282385 
L 112.576962 -60.282385 
L 110.051123 -60.282385 
L 107.525284 -60.282385 
L 104.999444 -60.282385 
L 102.473605 -60.282385 
L 99.947766 -60.282385 
L 97.421926 -60.282385 
L 94.896087 -60.282385 
L 92.370248 -60.282385 
L 89.844408 -60.282385 
L 87.318569 -60.282385 
L 84.79273 -60.282385 
L 82.26689 -60.282385 
L 79.741051 -60.282385 
z
" style="stroke: #ef5350; stroke-opacity: 0.35"/>
    </defs>
    <g clip-path="url(#p7316f486cf)">
     <use xlink:href="#m43d240e467" x="0" y="465.029497" style="fill: #ef5350; fill-opacity: 0.35; stroke: #ef5350; stroke-opacity: 0.35"/>
    </g>
   </g>
   <g id="matplotlib.axis_3">
    <g id="xtick_14">
     <g id="line2d_25">
      <g>
       <use xlink:href="#m5a474b800f" x="79.741051" y="410.373906" style="fill: #c5c8ce; stroke: #c5c8ce; stroke-width: 0.8"/>
      </g>
     </g>
     <g id="text_13">
      <!-- 2024-01-02 -->
      <g style="fill: #c5c8ce" transform="translate(32.798481 455.793136) rotate(-35) scale(0.1 -0.1)">
       <use xlink:href="#MicrosoftYaHei-32"/>
       <use xlink:href="#MicrosoftYaHei-30" transform="translate(58.642578 0)"/>
       <use xlink:href="#MicrosoftYaHei-32" transform="translate(117.285156 0)"/>
       <use xlink:href="#MicrosoftYaHei-34" transform="translate(175.927734 0)"/>
       <use xlink:href="#MicrosoftYaHei-2d" transform="translate(234.570312 0)"/>
       <use xlink:href="#MicrosoftYaHei-30" transform="translate(277.832031 0)"/>
       <use xlink:href="#MicrosoftYaHei-31" transform="translate(336.474609 0)"/>
       <use xlink:href="#MicrosoftYaHei-2d" transform="translate(395.117188 0)"/>
       <use xlink:href="#MicrosoftYaHei-30" transform="translate(438.378906 0)"/>
       <use xlink:href="#MicrosoftYaHei-32" transform="translate(497.021484 0)"/>
      </g>
     </g>
    </g>
    <g id="xtick_15">
     <g id="line2d_26">
      <g>
       <use xlink:href="#m5a474b800f" x="130.257837" y="410.373906" style="fill: #c5c8ce; stroke: #c5c8ce; stroke-width: 0.8"/>
      </g>
     </g>
     <g id="text_14">
      <!-- 2024-01-30 -->
      <g style="fill: #c5c8ce" transform="translate(83.315267 455.793136) rotate(-35) scale(0.1 -0.1)">
       <use xlink:href="#MicrosoftYaHei-32"/>
       <use xlink:href="#MicrosoftYaHei-30" transform="translate(58.642578 0)"/>
       <use xlink:href="#MicrosoftYaHei-32" transform="translate(117.285156 0)"/>
       <use xlink:href="#MicrosoftYaHei-34" transform="translate(175.927734 0)"/>
       <use xlink:href="#MicrosoftYaHei-2d" transform="translate(234.570312 0)"/>
       <use xlink:href="#MicrosoftYaHei-30" transform="translate(277.832031 0)"/>
       <use xlink:href="#MicrosoftYaHei-31" transform="translate(336.474609 0)"/>
       <use xlink:href="#MicrosoftYaHei-2d" transform="translate(395.117188 0)"/>
       <use xlink:href="#MicrosoftYaHei-33" transform="translate(438.378906 0)"/>
       <use xlink:href="#MicrosoftYaHei-30" transform="translate(497.021484 0)"/>
      </g>
     </g>
    </g>
    <g id="xtick_16">
     <g id="line2d_27">
      <g>
       <use xlink:href="#m5a474b800f" x="180.774623" y="410.373906" style="fill: #c5c8ce; stroke: #c5c8ce; stroke-width: 0.8"/>
      </g>
     </g>
     <g id="text_15">
      <!-- 2024-03-06 -->
      <g style="fill: #c5c8ce" transform="translate(133.832053 455.793136) rotate(-35) scale(0.1 -0.1)">
       <use xlink:href="#MicrosoftYaHei-32"/>
       <use xlink:href="#MicrosoftYaHei-30" transform="translate(58.642578 0)"/>
       <use xlink:href="#MicrosoftYaHei-32" transform="translate(117.285156 0)"/>
       <use xlink:href="#MicrosoftYaHei-34" transform="translate(175.927734 0)"/>
       <use xlink:href="#MicrosoftYaHei-2d" transform="translate(234.570312 0)"/>
       <use xlink:href="#MicrosoftYaHei-30" transform="translate(277.832031 0)"/>
       <use xlink:href="#MicrosoftYaHei-33" transform="translate(336.474609 0)"/>
       <use xlink:href="#MicrosoftYaHei-2d" transform="translate(395.117188 0)"/>
       <use xlink:href="#MicrosoftYaHei-30" transform="translate(438.378906 0)"/>
       <use xlink:href="#MicrosoftYaHei-36" transform="translate(497.021484 0)"/>
      </g>
     </g>
    </g>
    <g id="xtick_17">
     <g id="line2d_28">
      <g>
       <use xlink:href="#m5a474b800f" x="231.291409" y="410.373906" style="fill: #c5c8ce; stroke: #c5c8ce; stroke-width: 0.8"/>
      </g>
     </g>
     <g id="text_16">
      <!-- 2024-04-03 -->
      <g style="fill: #c5c8ce" transform="translate(184.348839 455.793136) rotate(-35) scale(0.1 -0.1)">
       <use xlink:href="#MicrosoftYaHei-32"/>
       <use xlink:href="#MicrosoftYaHei-30" transform="translate(58.642578 0)"/>
       <use xlink:href="#MicrosoftYaHei-32" transform="translate(117.285156 0)"/>
       <use xlink:href="#MicrosoftYaHei-34" transform="translate(175.927734 0)"/>
       <use xlink:href="#MicrosoftYaHei-2d" transform="translate(234.570312 0)"/>
       <use xlink:href="#MicrosoftYaHei-30" transform="translate(277.832031 0)"/>
       <use xlink:href="#MicrosoftYaHei-34" transform="translate(336.474609 0)"/>
       <use xlink:href="#MicrosoftYaHei-2d" transform="translate(395.117188 0)"/>
       <use xlink:href="#MicrosoftYaHei-30" transform="translate(438.378906 0)"/>
       <use xlink:href="#MicrosoftYaHei-33" transform="translate(497.021484 0)"/>
      </g>
     </g>
    </g>
    <g id="xtick_18">
     <g id="line2d_29">
      <g>
       <use xlink:href="#m5a474b800f" x="281.808196" y="410.373906" style="fill: #c5c8ce; stroke: #c5c8ce; stroke-width: 0.8"/>
      </g>
     </g>
     <g id="text_17">
      <!-- 2024-05-08 -->
      <g style="fill: #c5c8ce" transform="translate(234.865625 455.793136) rotate(-35) scale(0.1 -0.1)">
       <defs>
        <path id="MicrosoftYaHei-38" d="M 306 1350 
Q 306 1769 556 2122 
Q 806 2475 1200 2625 
Q 884 2803 700 3081 
Q 516 3359 516 3684 
Q 516 4028 692 4312 
Q 869 4597 1183 4759 
Q 1497 4922 1875 4922 
Q 2256 4922 2572 4761 
Q 2888 4600 3063 4315 
Q 3238 4031 3238 3684 
Q 3238 3366 3058 3086 
Q 2878 2806 2559 2625 
Q 2953 2472 3200 2119 
Q 3447 1766 3447 1350 
Q 3447 938 3250 611 
Q 3053 284 2690 103 
Q 2328 -78 1875 -78 
Q 1425 -78 1065 103 
Q 706 284 506 612 
Q 306 941 306 1350 
z
M 906 1378 
Q 906 947 1172 687 
Q 1438 428 1878 428 
Q 2309 428 2582 692 
Q 2856 956 2856 1378 
Q 2856 1778 2579 2051 
Q 2303 2325 1878 2325 
Q 1456 2325 1181 2058 
Q 906 1791 906 1378 
z
M 1081 3634 
Q 1081 3309 1312 3076 
Q 1544 2844 1878 2844 
Q 2206 2844 2445 3078 
Q 2684 3313 2684 3634 
Q 2684 3963 2454 4191 
Q 2225 4419 1878 4419 
Q 1534 4419 1307 4195 
Q 1081 3972 1081 3634 
z
" transform="scale(0.015625)"/>
       </defs>
       <use xlink:href="#MicrosoftYaHei-32"/>
       <use xlink:href="#MicrosoftYaHei-30" transform="translate(58.642578 0)"/>
       <use xlink:href="#MicrosoftYaHei-32" transform="translate(117.285156 0)"/>
       <use xlink:href="#MicrosoftYaHei-34" transform="translate(175.927734 0)"/>
       <use xlink:href="#MicrosoftYaHei-2d" transform="translate(234.570312 0)"/>
       <use xlink:href="#MicrosoftYaHei-30" transform="translate(277.832031 0)"/>
       <use xlink:href="#MicrosoftYaHei-35" transform="translate(336.474609 0)"/>
       <use xlink:href="#MicrosoftYaHei-2d" transform="translate(395.117188 0)"/>
       <use xlink:href="#MicrosoftYaHei-30" transform="translate(438.378906 0)"/>
       <use xlink:href="#MicrosoftYaHei-38" transform="translate(497.021484 0)"/>
      </g>
     </g>
    </g>
    <g id="xtick_19">
     <g id="line2d_30">
      <g>
       <use xlink:href="#m5a474b800f" x="332.324982" y="410.373906" style="fill: #c5c8ce; stroke: #c5c8ce; stroke-width: 0.8"/>
      </g>
     </g>
     <g id="text_18">
      <!-- 2024-06-05 -->
      <g style="fill: #c5c8ce" transform="translate(285.382411 455.793136) rotate(-35) scale(0.1 -0.1)">
       <use xlink:href="#MicrosoftYaHei-32"/>
       <use xlink:href="#MicrosoftYaHei-30" transform="translate(58.642578 0)"/>
       <use xlink:href="#MicrosoftYaHei-32" transform="translate(117.285156 0)"/>
       <use xlink:href="#MicrosoftYaHei-34" transform="translate(175.927734 0)"/>
       <use xlink:href="#MicrosoftYaHei-2d" transform="translate(234.570312 0)"/>
       <use xlink:href="#MicrosoftYaHei-30" transform="translate(277.832031 0)"/>
       <use xlink:href="#MicrosoftYaHei-36" transform="translate(336.474609 0)"/>
       <use xlink:href="#MicrosoftYaHei-2d" transform="translate(395.117188 0)"/>
       <use xlink:href="#MicrosoftYaHei-30" transform="translate(438.378906 0)"/>
       <use xlink:href="#MicrosoftYaHei-35" transform="translate(497.021484 0)"/>
      </g>
     </g>
    </g>
    <g id="xtick_20">
     <g id="line2d_31">
      <g>
       <use xlink:href="#m5a474b800f" x="382.841768" y="410.373906" style="fill: #c5c8ce; stroke: #c5c8ce; stroke-width: 0.8"/>
      </g>
     </g>
     <g id="text_19">
      <!-- 2024-07-04 -->
      <g style="fill: #c5c8ce" transform="translate(335.899197 455.793136) rotate(-35) scale(0.1 -0.1)">
       <defs>
        <path id="MicrosoftYaHei-37" d="M 3422 4463 
Q 2659 3131 2223 1998 
Q 1788 866 1684 0 
L 1047 0 
Q 1163 853 1594 1947 
Q 2025 3041 2747 4300 
L 347 4300 
L 347 4841 
L 3422 4841 
L 3422 4463 
z
" transform="scale(0.015625)"/>
       </defs>
       <use xlink:href="#MicrosoftYaHei-32"/>
       <use xlink:href="#MicrosoftYaHei-30" transform="translate(58.642578 0)"/>
       <use xlink:href="#MicrosoftYaHei-32" transform="translate(117.285156 0)"/>
       <use xlink:href="#MicrosoftYaHei-34" transform="translate(175.927734 0)"/>
       <use xlink:href="#MicrosoftYaHei-2d" transform="translate(234.570312 0)"/>
       <use xlink:href="#MicrosoftYaHei-30" transform="translate(277.832031 0)"/>
       <use xlink:href="#MicrosoftYaHei-37" transform="translate(336.474609 0)"/>
       <use xlink:href="#MicrosoftYaHei-2d" transform="translate(395.117188 0)"/>
       <use xlink:href="#MicrosoftYaHei-30" transform="translate(438.378906 0)"/>
       <use xlink:href="#MicrosoftYaHei-34" transform="translate(497.021484 0)"/>
      </g>
     </g>
    </g>
    <g id="xtick_21">
     <g id="line2d_32">
      <g>
       <use xlink:href="#m5a474b800f" x="433.358554" y="410.373906" style="fill: #c5c8ce; stroke: #c5c8ce; stroke-width: 0.8"/>
      </g>
     </g>
     <g id="text_20">
      <!-- 2024-08-01 -->
      <g style="fill: #c5c8ce" transform="translate(386.415983 455.793136) rotate(-35) scale(0.1 -0.1)">
       <use xlink:href="#MicrosoftYaHei-32"/>
       <use xlink:href="#MicrosoftYaHei-30" transform="translate(58.642578 0)"/>
       <use xlink:href="#MicrosoftYaHei-32" transform="translate(117.285156 0)"/>
       <use xlink:href="#MicrosoftYaHei-34" transform="translate(175.927734 0)"/>
       <use xlink:href="#MicrosoftYaHei-2d" transform="translate(234.570312 0)"/>
       <use xlink:href="#MicrosoftYaHei-30" transform="translate(277.832031 0)"/>
       <use xlink:href="#MicrosoftYaHei-38" transform="translate(336.474609 0)"/>
       <use xlink:href="#MicrosoftYaHei-2d" transform="translate(395.117188 0)"/>
       <use xlink:href="#MicrosoftYaHei-30" transform="translate(438.378906 0)"/>
       <use xlink:href="#MicrosoftYaHei-31" transform="translate(497.021484 0)"/>
      </g>
     </g>
    </g>
    <g id="xtick_22">
     <g id="line2d_33">
      <g>
       <use xlink:href="#m5a474b800f" x="483.87534" y="410.373906" style="fill: #c5c8ce; stroke: #c5c8ce; stroke-width: 0.8"/>
      </g>
     </g>
     <g id="text_21">
      <!-- 2024-08-29 -->
      <g style="fill: #c5c8ce" transform="translate(436.93277 455.793136) rotate(-35) scale(0.1 -0.1)">
       <use xlink:href="#MicrosoftYaHei-32"/>
       <use xlink:href="#MicrosoftYaHei-30" transform="translate(58.642578 0)"/>
       <use xlink:href="#MicrosoftYaHei-32" transform="translate(117.285156 0)"/>
       <use xlink:href="#MicrosoftYaHei-34" transform="translate(175.927734 0)"/>
       <use xlink:href="#MicrosoftYaHei-2d" transform="translate(234.570312 0)"/>
       <use xlink:href="#MicrosoftYaHei-30" transform="translate(277.832031 0)"/>
       <use xlink:href="#MicrosoftYaHei-38" transform="translate(336.474609 0)"/>
       <use xlink:href="#MicrosoftYaHei-2d" transform="translate(395.117188 0)"/>
       <use xlink:href="#MicrosoftYaHei-32" transform="translate(438.378906 0)"/>
       <use xlink:href="#MicrosoftYaHei-39" transform="translate(497.021484 0)"/>
      </g>
     </g>
    </g>
    <g id="xtick_23">
     <g id="line2d_34">
      <g>
       <use xlink:href="#m5a474b800f" x="534.392126" y="410.373906" style="fill: #c5c8ce; stroke: #c5c8ce; stroke-width: 0.8"/>
      </g>
     </g>
     <g id="text_22">
      <!-- 2024-09-30 -->
      <g style="fill: #c5c8ce" transform="translate(487.449556 455.793136) rotate(-35) scale(0.1 -0.1)">
       <use xlink:href="#MicrosoftYaHei-32"/>
       <use xlink:href="#MicrosoftYaHei-30" transform="translate(58.642578 0)"/>
       <use xlink:href="#MicrosoftYaHei-32" transform="translate(117.285156 0)"/>
       <use xlink:href="#MicrosoftYaHei-34" transform="translate(175.927734 0)"/>
       <use xlink:href="#MicrosoftYaHei-2d" transform="translate(234.570312 0)"/>
       <use xlink:href="#MicrosoftYaHei-30" transform="translate(277.832031 0)"/>
       <use xlink:href="#MicrosoftYaHei-39" transform="translate(336.474609 0)"/>
       <use xlink:href="#MicrosoftYaHei-2d" transform="translate(395.117188 0)"/>
       <use xlink:href="#MicrosoftYaHei-33" transform="translate(438.378906 0)"/>
       <use xlink:href="#MicrosoftYaHei-30" transform="translate(497.021484 0)"/>
      </g>
     </g>
    </g>
    <g id="xtick_24">
     <g id="line2d_35">
      <g>
       <use xlink:href="#m5a474b800f" x="584.908912" y="410.373906" style="fill: #c5c8ce; stroke: #c5c8ce; stroke-width: 0.8"/>
      </g>
     </g>
     <g id="text_23">
      <!-- 2024-11-04 -->
      <g style="fill: #c5c8ce" transform="translate(537.966342 455.793136) rotate(-35) scale(0.1 -0.1)">
       <use xlink:href="#MicrosoftYaHei-32"/>
       <use xlink:href="#MicrosoftYaHei-30" transform="translate(58.642578 0)"/>
       <use xlink:href="#MicrosoftYaHei-32" transform="translate(117.285156 0)"/>
       <use xlink:href="#MicrosoftYaHei-34" transform="translate(175.927734 0)"/>
       <use xlink:href="#MicrosoftYaHei-2d" transform="translate(234.570312 0)"/>
       <use xlink:href="#MicrosoftYaHei-31" transform="translate(277.832031 0)"/>
       <use xlink:href="#MicrosoftYaHei-31" transform="translate(336.474609 0)"/>
       <use xlink:href="#MicrosoftYaHei-2d" transform="translate(395.117188 0)"/>
       <use xlink:href="#MicrosoftYaHei-30" transform="translate(438.378906 0)"/>
       <use xlink:href="#MicrosoftYaHei-34" transform="translate(497.021484 0)"/>
      </g>
     </g>
    </g>
    <g id="xtick_25">
     <g id="line2d_36">
      <g>
       <use xlink:href="#m5a474b800f" x="635.425698" y="410.373906" style="fill: #c5c8ce; stroke: #c5c8ce; stroke-width: 0.8"/>
      </g>
     </g>
     <g id="text_24">
      <!-- 2024-12-02 -->
      <g style="fill: #c5c8ce" transform="translate(588.483128 455.793136) rotate(-35) scale(0.1 -0.1)">
       <use xlink:href="#MicrosoftYaHei-32"/>
       <use xlink:href="#MicrosoftYaHei-30" transform="translate(58.642578 0)"/>
       <use xlink:href="#MicrosoftYaHei-32" transform="translate(117.285156 0)"/>
       <use xlink:href="#MicrosoftYaHei-34" transform="translate(175.927734 0)"/>
       <use xlink:href="#MicrosoftYaHei-2d" transform="translate(234.570312 0)"/>
       <use xlink:href="#MicrosoftYaHei-31" transform="translate(277.832031 0)"/>
       <use xlink:href="#MicrosoftYaHei-32" transform="translate(336.474609 0)"/>
       <use xlink:href="#MicrosoftYaHei-2d" transform="translate(395.117188 0)"/>
       <use xlink:href="#MicrosoftYaHei-30" transform="translate(438.378906 0)"/>
       <use xlink:href="#MicrosoftYaHei-32" transform="translate(497.021484 0)"/>
      </g>
     </g>
    </g>
    <g id="xtick_26">
     <g id="line2d_37">
      <g>
       <use xlink:href="#m5a474b800f" x="685.942485" y="410.373906" style="fill: #c5c8ce; stroke: #c5c8ce; stroke-width: 0.8"/>
      </g>
     </g>
     <g id="text_25">
      <!-- 2024-12-30 -->
      <g style="fill: #c5c8ce" transform="translate(638.999914 455.793136) rotate(-35) scale(0.1 -0.1)">
       <use xlink:href="#MicrosoftYaHei-32"/>
       <use xlink:href="#MicrosoftYaHei-30" transform="translate(58.642578 0)"/>
       <use xlink:href="#MicrosoftYaHei-32" transform="translate(117.285156 0)"/>
       <use xlink:href="#MicrosoftYaHei-34" transform="translate(175.927734 0)"/>
       <use xlink:href="#MicrosoftYaHei-2d" transform="translate(234.570312 0)"/>
       <use xlink:href="#MicrosoftYaHei-31" transform="translate(277.832031 0)"/>
       <use xlink:href="#MicrosoftYaHei-32" transform="translate(336.474609 0)"/>
       <use xlink:href="#MicrosoftYaHei-2d" transform="translate(395.117188 0)"/>
       <use xlink:href="#MicrosoftYaHei-33" transform="translate(438.378906 0)"/>
       <use xlink:href="#MicrosoftYaHei-30" transform="translate(497.021484 0)"/>
      </g>
     </g>
    </g>
   </g>
   <g id="matplotlib.axis_4">
    <g id="ytick_9">
     <g id="line2d_38">
      <g>
       <use xlink:href="#mac3d4bb46b" x="49.304688" y="404.747112" style="fill: #c5c8ce; stroke: #c5c8ce; stroke-width: 0.8"/>
      </g>
     </g>
     <g id="text_26">
      <!-- 0% -->
      <g style="fill: #c5c8ce" transform="translate(27.54375 408.743987) scale(0.1 -0.1)">
       <use xlink:href="#MicrosoftYaHei-30"/>
       <use xlink:href="#MicrosoftYaHei-25" transform="translate(58.642578 0)"/>
      </g>
     </g>
    </g>
    <g id="ytick_10">
     <g id="line2d_39">
      <g>
       <use xlink:href="#mac3d4bb46b" x="49.304688" y="377.03042" style="fill: #c5c8ce; stroke: #c5c8ce; stroke-width: 0.8"/>
      </g>
     </g>
     <g id="text_27">
      <!-- 5% -->
      <g style="fill: #c5c8ce" transform="translate(27.54375 381.027295) scale(0.1 -0.1)">
       <use xlink:href="#MicrosoftYaHei-35"/>
       <use xlink:href="#MicrosoftYaHei-25" transform="translate(58.642578 0)"/>
      </g>
     </g>
    </g>
    <g id="ytick_11">
     <g id="line2d_40">
      <g>
       <use xlink:href="#mac3d4bb46b" x="49.304688" y="349.313728" style="fill: #c5c8ce; stroke: #c5c8ce; stroke-width: 0.8"/>
      </g>
     </g>
     <g id="text_28">
      <!-- 10% -->
      <g style="fill: #c5c8ce" transform="translate(21.679688 353.310603) scale(0.1 -0.1)">
       <use xlink:href="#MicrosoftYaHei-31"/>
       <use xlink:href="#MicrosoftYaHei-30" transform="translate(58.642578 0)"/>
       <use xlink:href="#MicrosoftYaHei-25" transform="translate(117.285156 0)"/>
      </g>
     </g>
    </g>
    <g id="ytick_12">
     <g id="line2d_41">
      <g>
       <use xlink:href="#mac3d4bb46b" x="49.304688" y="321.597036" style="fill: #c5c8ce; stroke: #c5c8ce; stroke-width: 0.8"/>
      </g>
     </g>
     <g id="text_29">
      <!-- 15% -->
      <g style="fill: #c5c8ce" transform="translate(21.679688 325.593911) scale(0.1 -0.1)">
       <use xlink:href="#MicrosoftYaHei-31"/>
       <use xlink:href="#MicrosoftYaHei-35" transform="translate(58.642578 0)"/>
       <use xlink:href="#MicrosoftYaHei-25" transform="translate(117.285156 0)"/>
      </g>
     </g>
    </g>
    <g id="ytick_13">
     <g id="line2d_42">
      <g>
       <use xlink:href="#mac3d4bb46b" x="49.304688" y="293.880344" style="fill: #c5c8ce; stroke: #c5c8ce; stroke-width: 0.8"/>
      </g>
     </g>
     <g id="text_30">
      <!-- 20% -->
      <g style="fill: #c5c8ce" transform="translate(21.679688 297.877219) scale(0.1 -0.1)">
       <use xlink:href="#MicrosoftYaHei-32"/>
       <use xlink:href="#MicrosoftYaHei-30" transform="translate(58.642578 0)"/>
       <use xlink:href="#MicrosoftYaHei-25" transform="translate(117.285156 0)"/>
      </g>
     </g>
    </g>
    <g id="text_31">
     <!-- 回撤 -->
     <g style="fill: #e8eaed" transform="translate(15.19375 358.479169) rotate(-90) scale(0.1 -0.1)">
      <use xlink:href="#MicrosoftYaHei-56de"/>
      <use xlink:href="#MicrosoftYaHei-64a4" transform="translate(100 0)"/>
     </g>
    </g>
   </g>
   <g id="line2d_43">
    <path d="M 79.741051 404.747112 
L 84.79273 404.747112 
L 87.318569 404.251266 
L 89.844408 399.788648 
L 92.370248 400.615059 
L 94.896087 398.218468 
L 97.421926 392.103029 
L 99.947766 394.582261 
L 102.473605 395.739236 
L 104.999444 401.276187 
L 107.525284 395.821877 
L 112.576962 396.81357 
L 115.102801 396.81357 
L 117.628641 398.053186 
L 120.15448 404.747112 
L 127.731998 404.747112 
L 130.257837 399.818802 
L 132.783677 400.534202 
L 135.309516 388.183357 
L 137.835355 393.196456 
L 140.361194 400.66841 
L 142.887034 404.747112 
L 145.412873 397.636784 
L 147.938712 394.317931 
L 150.464552 404.747112 
L 160.567909 404.747112 
L 163.093748 390.152242 
L 165.619588 392.958171 
L 168.145427 391.464367 
L 170.671266 395.29981 
L 173.197105 385.994817 
L 175.722945 384.501013 
L 178.248784 394.170367 
L 180.774623 387.629927 
L 183.300463 389.638488 
L 185.826302 388.260757 
L 188.352141 385.994817 
L 190.877981 379.313072 
L 193.40382 375.810707 
L 195.929659 378.334024 
L 198.455499 380.20128 
L 200.981338 378.308791 
L 203.507177 372.797865 
L 208.558856 379.313072 
L 211.084695 379.595683 
L 213.610534 382.235074 
L 216.136374 386.857792 
L 218.662213 390.758841 
L 221.188052 383.819717 
L 223.713892 386.11089 
L 226.239731 378.933626 
L 228.76557 372.352813 
L 231.291409 366.266571 
L 233.817249 365.903213 
L 236.343088 362.744019 
L 238.868927 355.537423 
L 241.394767 351.29825 
L 243.920606 342.527197 
L 246.446445 351.136757 
L 248.972285 351.308343 
L 251.498124 355.06304 
L 254.023963 351.843286 
L 256.549803 350.702747 
L 259.075642 347.644485 
L 261.601481 346.554412 
L 264.12732 346.049749 
L 266.65316 349.935658 
L 269.178999 352.176364 
L 271.704838 363.753346 
L 274.230678 367.245618 
L 276.756517 359.28127 
L 279.282356 361.173758 
L 281.808196 355.42564 
L 284.334035 355.753672 
L 286.859874 364.237066 
L 291.911553 359.528555 
L 294.437392 365.872176 
L 296.963231 379.235667 
L 299.489071 401.990947 
L 302.01491 404.747112 
L 309.592428 404.747112 
L 312.118267 390.200272 
L 314.644107 391.870863 
L 317.169946 384.55348 
L 319.695785 383.718185 
L 322.221625 373.552982 
L 324.747464 371.882391 
L 327.273303 357.447093 
L 329.799142 363.787522 
L 332.324982 359.200724 
L 334.850821 356.172168 
L 337.37666 353.974022 
L 339.9025 344.057943 
L 342.428339 340.413906 
L 344.954178 339.407644 
L 347.480018 345.469641 
L 350.005857 335.670796 
L 352.531696 333.389609 
L 355.057535 336.286277 
L 357.583375 331.313583 
L 360.109214 328.397376 
L 362.635053 326.179691 
L 365.160893 330.024004 
L 367.686732 332.627585 
L 370.212571 330.453863 
L 372.738411 330.742065 
L 375.26425 332.256591 
L 377.790089 336.39399 
L 380.315929 335.969015 
L 382.841768 332.007468 
L 385.367607 325.110175 
L 387.893446 323.654514 
L 390.419286 329.618816 
L 395.470964 330.331993 
L 397.996804 341.234795 
L 400.522643 343.696718 
L 403.048482 344.932565 
L 405.574322 353.119436 
L 408.100161 348.415404 
L 410.626 345.533391 
L 413.15184 338.386975 
L 415.677679 339.33462 
L 418.203518 335.260724 
L 420.729357 333.980914 
L 423.255197 329.823977 
L 425.781036 333.22866 
L 428.306875 331.880464 
L 430.832715 335.568464 
L 433.358554 326.249719 
L 435.884393 323.059966 
L 438.410233 320.060718 
L 440.936072 317.774646 
L 443.461911 316.289677 
L 445.98775 321.223293 
L 448.51359 331.271261 
L 451.039429 326.313221 
L 453.565268 326.029905 
L 456.091108 324.520511 
L 458.616947 331.261491 
L 461.142786 333.459637 
L 463.668626 340.977295 
L 466.194465 337.030403 
L 468.720304 333.469407 
L 471.246144 333.904151 
L 473.771983 332.687844 
L 476.297822 333.274016 
L 478.823661 330.274768 
L 481.349501 325.756358 
L 483.87534 313.471166 
L 486.401179 316.74396 
L 488.927019 304.667386 
L 491.452858 297.779863 
L 493.978697 298.89359 
L 496.504537 301.296896 
L 499.030376 300.740032 
L 501.556215 297.83848 
L 504.082055 300.886575 
L 506.607894 292.211227 
L 509.133733 296.724753 
L 511.659572 293.559423 
L 514.185412 298.952207 
L 516.711251 309.034369 
L 519.23709 312.961722 
L 521.76293 318.588975 
L 524.288769 336.936165 
L 526.814608 349.714718 
L 529.340448 374.597728 
L 531.866287 387.757293 
L 534.392126 404.747112 
L 536.917966 404.747112 
L 539.443805 394.270513 
L 541.969644 404.747112 
L 547.021323 404.747112 
L 549.547162 392.629432 
L 552.073001 403.645505 
L 554.598841 399.239076 
L 557.12468 397.035861 
L 559.650519 383.816575 
L 562.176359 386.019789 
L 564.702198 384.918182 
L 567.228037 387.121396 
L 569.753876 381.61336 
L 572.279716 375.003717 
L 574.805555 378.308538 
L 577.331394 369.495681 
L 579.857234 371.698895 
L 582.383073 366.467868 
L 584.908912 366.467868 
L 587.434752 368.626483 
L 589.960591 365.38856 
L 592.48643 368.626483 
L 595.01227 364.309253 
L 597.538109 356.754101 
L 600.063948 352.436871 
L 602.589787 353.516178 
L 605.115627 356.754101 
L 607.641466 357.833408 
L 610.167305 368.626483 
L 612.693145 363.229945 
L 615.218984 365.38856 
L 617.744823 365.38856 
L 620.270663 357.833408 
L 622.796502 361.07133 
L 625.322341 369.70579 
L 630.37402 374.02302 
L 632.899859 369.70579 
L 635.425698 360.220721 
L 637.951538 365.644018 
L 640.477377 361.188529 
L 643.003216 360.845113 
L 645.529056 367.062281 
L 648.054895 362.682612 
L 650.580734 369.426054 
L 653.106574 367.245139 
L 655.632413 371.562369 
L 658.158252 361.866442 
L 660.684091 362.437315 
L 663.209931 359.301971 
L 665.73577 359.301971 
L 668.261609 349.476705 
L 670.787449 346.867635 
L 673.313288 350.123398 
L 675.839127 355.310318 
L 678.364967 352.959925 
L 680.890806 351.563961 
L 683.416645 353.249822 
L 685.942485 350.899429 
L 688.468324 346.421641 
L 688.468324 346.421641 
" clip-path="url(#p7316f486cf)" style="fill: none; stroke: #ef5350; stroke-linecap: square"/>
   </g>
   <g id="patch_10">
    <path d="M 49.304688 410.373906 
L 49.304688 286.584433 
" style="fill: none; stroke: #2a2f3a; stroke-width: 0.8; stroke-linejoin: miter; stroke-linecap: square"/>
   </g>
   <g id="patch_11">
    <path d="M 718.904688 410.373906 
L 718.904688 286.584433 
" style="fill: none; stroke: #2a2f3a; stroke-width: 0.8; stroke-linejoin: miter; stroke-linecap: square"/>
   </g>
   <g id="patch_12">
    <path d="M 49.304688 410.373906 
L 718.904688 410.373906 
" style="fill: none; stroke: #2a2f3a; stroke-width: 0.8; stroke-linejoin: miter; stroke-linecap: square"/>
   </g>
   <g id="patch_13">
    <path d="M 49.304688 286.584433 
L 718.904688 286.584433 
" style="fill: none; stroke: #2a2f3a; stroke-width: 0.8; stroke-linejoin: miter; stroke-linecap: square"/>
   </g>
  </g>
 </g>
 <defs>
  <clipPath id="peb35406624">
   <rect x="49.304688" y="22.293906" width="669.6" height="216.631579"/>
  </clipPath>
  <clipPath id="p7316f486cf">
   <rect x="49.304688" y="286.584433" width="669.6" height="123.789474"/>
  </clipPath>
 </defs>
</svg>
